<svg xmlns="http://www.w3.org/2000/svg" viewBox="0 0 917.38 480.24"><defs><style>.cls-1,.cls-2,.cls-3{fill:#008bbe;}.cls-1,.cls-3{stroke:#fff;stroke-miterlimit:10;stroke-width:2px;}.cls-1{opacity:0.1;}.cls-3{opacity:0.5;}</style></defs><g id="Lag_2" data-name="Lag 2"><g id="Lag_1-2" data-name="Lag 1"><polygon class="cls-1" points="473.16 1.04 915.44 79.65 557.77 479.02 2.37 217.96 473.16 1.04"/><polyline class="cls-2" points="64.48 205.71 545.16 443.33 864.48 100.63 479.48 24.33"/><path class="cls-3" d="M157.43,221.86c-1.11-1.08,15.61-36.94,50.21-47.46,28.82-8.77,46,7.38,64.88-6.93,12.5-9.45,9.61-20,25.14-29.17,12-7.13,15.75-1.94,33.95-9.07,21.54-8.42,23.43-18.44,35.86-17.51,12.86,1,16.86,12.14,27,9.58,8-2,8.38-9.78,17.67-12.06,7.21-1.77,16.77.49,18.84,5.54,3.12,7.61-9.57,24.77-24.94,27.75-17.34,3.36-29.16-13-39-6.9-7.66,4.78-4,17-12.35,20.8-7,3.22-11.49-4.48-19.95-2.79-14.25,2.86-12.47,27-28.58,33.06-10.77,4-15.49-5.27-28.18-1-13.8,4.6-12.44,17-25.37,20.43-12.19,3.21-17.83-6.63-29.51-1.94-8.84,3.54-10.13,11-16.76,10.73-6.87-.26-8.08-8.37-15.19-10.84C177.08,199.18,158.42,222.83,157.43,221.86Z"/><path class="cls-3" d="M285,249.07c-1.11-1.08,15.61-36.95,50.21-47.47,28.82-8.76,46,7.38,64.89-6.92,12.49-9.45,9.6-20,25.13-29.18,12.05-7.12,15.75-1.94,34-9.06C480.67,148,482.56,138,495,138.93c12.86,1,16.86,12.14,27,9.58,8-2,8.38-9.78,17.67-12.06,7.21-1.78,16.77.49,18.84,5.53,3.12,7.62-9.56,24.77-24.94,27.75-17.34,3.36-29.16-13-39-6.89-7.66,4.78-4,16.95-12.34,20.79-7,3.23-11.5-4.48-20-2.78-14.26,2.86-12.47,27-28.59,33.05-10.77,4-15.49-5.26-28.18-1-13.8,4.61-12.44,17-25.37,20.43-12.19,3.22-17.83-6.63-29.51-1.94-8.84,3.55-10.13,11-16.76,10.74-6.87-.27-8.08-8.38-15.19-10.84C304.6,226.38,286,250,285,249.07Z"/><path class="cls-3" d="M439,278.07c-1.11-1.08,15.61-36.95,50.21-47.47,28.82-8.76,46,7.38,64.89-6.92,12.49-9.45,9.6-20,25.13-29.18,12.05-7.12,15.75-1.94,34-9.06C634.67,177,636.56,167,649,167.93c12.86,1,16.86,12.14,27,9.58,8-2,8.38-9.78,17.67-12.06,7.21-1.78,16.77.49,18.84,5.53,3.12,7.62-9.56,24.77-24.94,27.75-17.34,3.36-29.16-13-39-6.89-7.66,4.78-4,16.95-12.34,20.79-7,3.23-11.5-4.48-20-2.78-14.26,2.86-12.47,27-28.59,33.05-10.77,4-15.49-5.26-28.18-1-13.8,4.61-12.44,17-25.37,20.43-12.19,3.22-17.83-6.63-29.51-1.94-8.84,3.55-10.13,11-16.76,10.74-6.87-.27-8.08-8.38-15.19-10.84C458.6,255.38,440,279,439,278.07Z"/></g></g></svg>