<svg xmlns="http://www.w3.org/2000/svg" viewBox="0 0 336.23 362.63"><defs><style>.cls-1{fill:#1fd86d;}.cls-2,.cls-3{fill:#fff;}.cls-2{stroke:#fff;stroke-miterlimit:10;stroke-width:7px;}</style></defs><g id="Lag_2" data-name="Lag 2"><g id="Lag_1-2" data-name="Lag 1"><path class="cls-1" d="M0,310.52,56.78,196.64l0-.11,3.27-8.34a1.27,1.27,0,0,1,.44-.56l85.59-61.87a1.27,1.27,0,0,0,.53-1.1l-1.78-34.48a1.27,1.27,0,0,1,.33-.93l9.94-10.84a1.27,1.27,0,0,1,2.21.85V86a1.27,1.27,0,0,0,2.27.79L167.7,76.4a1.22,1.22,0,0,0,.26-.92l-1.39-13.13a1.3,1.3,0,0,1,.22-.86L209.21,0l11.37,44.51,53.64,44.75a1.28,1.28,0,0,1,.45,1v14.41a1.3,1.3,0,0,0,.54,1l7.56,5.29a1.27,1.27,0,0,0,2-1V99.79a1.27,1.27,0,0,1,2.19-.88L335.88,150a1.27,1.27,0,0,1,0,1.78l-32.71,32.71a1.28,1.28,0,0,1-1.47.23L292.27,180a1.27,1.27,0,0,0-1.63.42l-5,7.44a1.27,1.27,0,0,0,.53,1.87l8.71,4a1.28,1.28,0,0,1,.12,2.26l-27.32,15.9a1.25,1.25,0,0,0-.63,1.09v19.43a1.27,1.27,0,0,1-1.28,1.27H254a1.28,1.28,0,0,0-1.25,1.05l-3,17.17a1.82,1.82,0,0,0,0,.33l3.07,34a1.28,1.28,0,0,1-.89,1.33L190,306.41a1.28,1.28,0,0,0-.27,2.32l3.94,2.31a1.27,1.27,0,0,1-.37,2.34l-36,7.79-6.53,23-17.62,18.45L84.82,317l-21.53-3.25-25.08-2.42Z"/><polygon class="cls-2" points="189.27 175.05 189.22 191.83 156.96 243.63 154.01 229.47 154.01 200.96 189.27 175.05"/><path class="cls-3" d="M134.67,251.72l-2.12-56.18c0-24,13.95-54.38,39.1-54.36s38.3,4.9,38.29,28.92L211,228.4c0,24-14.26,49-39.42,49S134.66,275.74,134.67,251.72Zm54.52-11.05,0-62.79c0-11.54-6.23-17.79-17.58-17.79s-17.59,6.23-17.59,17.77l0,62.79c0,11.54,6.24,17.78,17.58,17.79S189.19,252.21,189.19,240.67Z"/></g></g></svg>