<svg xmlns="http://www.w3.org/2000/svg" viewBox="0 0 667.18 591.75"><defs><style>.cls-1{fill:#32a4d6;}.cls-2{fill:#3ebcff;}</style></defs><g id="Lag_2" data-name="Lag 2"><g id="Lag_1-2" data-name="Lag 1"><path class="cls-1" d="M396.9,588.22a3.64,3.64,0,0,0-3.73-3.54H234.44a3.71,3.71,0,0,1-3.61-2.62l-7.37-25.95a3.21,3.21,0,0,1-.11-.52l-1.95-16.25a3.63,3.63,0,0,0-3.1-3.09L191,532a3.62,3.62,0,0,1-3.13-3.33l-1-21a3.47,3.47,0,0,0-1.28-2.5L76,414.87a3.53,3.53,0,0,1-.94-1.2l-71-147.55a3.47,3.47,0,0,1-.33-1.3S-1.64,119.43.5,119.43H77.06a4.12,4.12,0,0,0,.86-.09l47.42-10.62a3.84,3.84,0,0,0,1.63-.8L151.56,87.1a3.45,3.45,0,0,0,1.21-2.18l3-21.81a3.73,3.73,0,0,1,4.94-2.88l28.07,9.31a3.92,3.92,0,0,0,2.93-.19l21.54-10.42a4.08,4.08,0,0,0,.57-.34l28-20.25a3.89,3.89,0,0,1,2.27-.73h38.84a3.83,3.83,0,0,1,1.26.21l35.41,12a3.69,3.69,0,0,1,2,1.58L338,78.78a3.38,3.38,0,0,1,.45,1.24l3.59,23.61a3.68,3.68,0,0,0,3.87,3l73.4-3.15a3.73,3.73,0,0,1,3.8,2.69L485.3,345.57a3.53,3.53,0,0,0,1.85,2.26l101.24,52a3.47,3.47,0,0,1,.72.48l50.56,43.11a3.44,3.44,0,0,1,1.15,3.4l-19.31,81.24a3.48,3.48,0,0,1-.44,1l-28,44.61a3.73,3.73,0,0,1-2.32,1.63l-39,9a3.88,3.88,0,0,1-2.68-.33L516.24,567a4,4,0,0,0-3.11-.21L495.56,573a3.49,3.49,0,0,0-1.21.7l-11.79,10.19a3.81,3.81,0,0,1-2.17.91l-79.41,7a3.66,3.66,0,0,1-4.08-3.52Z"/><path class="cls-2" d="M423.17,550.6a3.63,3.63,0,0,0-3.73-3.53H260.71a3.72,3.72,0,0,1-3.61-2.62l-7.37-26a3,3,0,0,1-.11-.52l-2-16.24a3.62,3.62,0,0,0-3.1-3.1l-27.26-4.22a3.62,3.62,0,0,1-3.13-3.33l-1-21a3.49,3.49,0,0,0-1.28-2.51L102.3,377.26a3.47,3.47,0,0,1-.94-1.21l-71-147.54a3.67,3.67,0,0,1-.33-1.3S24.64,81.82,26.77,81.82h76.57a3.53,3.53,0,0,0,.85-.1l47.42-10.61a4,4,0,0,0,1.63-.81l24.59-20.82A3.43,3.43,0,0,0,179,47.3l3-21.81A3.74,3.74,0,0,1,187,22.61l28.07,9.32a3.92,3.92,0,0,0,2.93-.19l21.54-10.42a4.08,4.08,0,0,0,.57-.34l28-20.25A3.89,3.89,0,0,1,270.35,0H309.2a3.81,3.81,0,0,1,1.25.21l35.41,11.94a3.71,3.71,0,0,1,2,1.59L364.3,41.17a3.25,3.25,0,0,1,.45,1.24L368.34,66a3.7,3.7,0,0,0,3.87,3l73.4-3.15a3.72,3.72,0,0,1,3.8,2.69L511.57,308a3.57,3.57,0,0,0,1.85,2.27l101.24,52a4.51,4.51,0,0,1,.72.48l50.56,43.11a3.44,3.44,0,0,1,1.15,3.41l-19.31,81.24a3.6,3.6,0,0,1-.44,1l-28,44.61a3.76,3.76,0,0,1-2.32,1.63l-39,9a3.94,3.94,0,0,1-2.68-.33l-32.89-17.07a4,4,0,0,0-3.11-.21l-17.57,6.24a3.84,3.84,0,0,0-1.21.7l-11.78,10.2a3.94,3.94,0,0,1-2.18.91l-79.41,6.94a3.66,3.66,0,0,1-4.08-3.52Z"/></g></g></svg>