<svg xmlns="http://www.w3.org/2000/svg" viewBox="0 0 977.36 526.38"><defs><style>.cls-1{fill:#d4d9dc;}.cls-2,.cls-3{fill:#a1a8ae;}.cls-2{stroke:#a1a8ae;stroke-width:3px;}.cls-2,.cls-4,.cls-5,.cls-6{stroke-miterlimit:10;}.cls-4{fill:#282634;stroke-width:0.5px;}.cls-4,.cls-5,.cls-6{stroke:#fff;}.cls-5{fill:#3b4b7f;stroke-width:0.75px;opacity:0.5;}.cls-6{fill:none;stroke-width:2px;opacity:0.3;}</style></defs><g id="Lag_2" data-name="Lag 2"><g id="Lag_1-2" data-name="Lag 1"><polygon class="cls-1" points="945.25 526 656.28 32.02 0.25 207.18 0.25 180.81 670.87 0.35 977.36 526 945.25 526"/><line class="cls-2" x1="923.54" y1="488.89" x2="949.51" y2="478.25"/><line class="cls-2" x1="897.94" y1="445.65" x2="923.91" y2="435"/><line class="cls-2" x1="872.94" y1="402.65" x2="898.91" y2="392"/><line class="cls-2" x1="824.94" y1="318.65" x2="850.91" y2="308"/><line class="cls-2" x1="796.94" y1="273.65" x2="822.91" y2="263"/><line class="cls-2" x1="773.94" y1="232.65" x2="799.91" y2="222"/><line class="cls-2" x1="749.94" y1="191.65" x2="775.91" y2="181"/><line class="cls-2" x1="723.94" y1="146.65" x2="749.91" y2="136"/><line class="cls-2" x1="693.94" y1="96.65" x2="719.91" y2="86"/><line class="cls-2" x1="668.94" y1="52.65" x2="694.91" y2="42"/><polygon class="cls-3" points="654.49 32.43 669.33 0.41 670.86 0 672.32 2.51 657.34 34.11 656.11 32 654.49 32.43"/><line class="cls-2" x1="619.25" y1="42" x2="612.25" y2="16"/><line class="cls-2" x1="577.81" y1="52.86" x2="571.25" y2="27"/><line class="cls-2" x1="532.25" y1="65" x2="525.25" y2="40"/><line class="cls-2" x1="481.25" y1="79" x2="475.25" y2="53"/><line class="cls-2" x1="425.25" y1="94" x2="418.25" y2="68"/><line class="cls-2" x1="356.25" y1="112" x2="349.25" y2="87"/><line class="cls-2" x1="288.25" y1="130" x2="282.25" y2="105"/><line class="cls-2" x1="234.19" y1="144.86" x2="227.25" y2="120"/><line class="cls-2" x1="181.25" y1="159" x2="175.25" y2="134"/><line class="cls-2" x1="124.25" y1="174" x2="117.25" y2="149"/><line class="cls-2" x1="58.19" y1="191.86" x2="51.25" y2="167"/><polygon class="cls-4" points="0.25 206.18 0.25 525 654.49 525 654.49 33.11 0.25 206.18"/><polygon class="cls-5" points="655.49 33.11 655.49 525 694.94 525 689.44 90.43 655.49 33.11"/><polygon class="cls-5" points="690.44 92.49 735.01 166.56 735.01 525 695.94 525 690.44 92.49"/><polygon class="cls-5" points="735.01 166.73 783.08 248.78 783.08 525 735.01 525 735.01 166.73"/><polygon class="cls-5" points="783.08 248.78 848.33 360.32 848.33 525 783.08 525 783.08 248.78"/><line class="cls-2" x1="850.94" y1="365.65" x2="876.91" y2="355"/><polygon class="cls-5" points="848.33 525 848.33 360.32 945.25 526 848.33 525"/><polygon class="cls-6" points="76.87 293.89 76.87 232 2.25 232 2.25 287.95 76.87 293.89"/><polygon class="cls-6" points="76.97 376.93 76.97 315.04 2.35 315.04 2.35 370.99 76.97 376.93"/><polygon class="cls-6" points="76.97 462.93 76.97 401.04 2.35 401.04 2.35 456.99 76.97 462.93"/><polygon class="cls-6" points="180.88 263.04 181.05 201.15 106.43 200.94 106.27 256.88 180.88 263.04"/><polygon class="cls-6" points="180.97 351.93 180.97 290.04 106.34 290.04 106.34 345.99 180.97 351.93"/><polygon class="cls-6" points="180.49 442.4 181.41 380.51 106.8 379.4 105.96 435.34 180.49 442.4"/><polygon class="cls-6" points="374.85 215.35 375.02 153.46 300.4 153.25 300.24 209.19 374.85 215.35"/><polygon class="cls-6" points="374.93 304.24 374.93 242.35 300.31 242.35 300.31 298.3 374.93 304.24"/><polygon class="cls-6" points="374.46 394.71 375.38 332.83 300.76 331.72 299.93 387.66 374.46 394.71"/><polygon class="cls-6" points="478.85 174.35 479.02 112.46 404.4 112.25 404.24 168.19 478.85 174.35"/><polygon class="cls-6" points="478.93 263.24 478.93 201.35 404.31 201.35 404.31 257.3 478.93 263.24"/><polygon class="cls-6" points="478.46 353.71 479.38 291.83 404.76 290.72 403.93 346.66 478.46 353.71"/><polygon class="cls-6" points="582.85 142.35 583.02 80.46 508.4 80.25 508.24 136.19 582.85 142.35"/><polygon class="cls-6" points="582.93 231.24 582.93 169.35 508.31 169.35 508.31 225.3 582.93 231.24"/><polygon class="cls-6" points="582.46 321.71 583.38 259.83 508.76 258.72 507.93 314.66 582.46 321.71"/><polygon class="cls-6" points="277.85 232.35 278.02 170.46 203.4 170.25 203.24 226.19 277.85 232.35"/><polygon class="cls-6" points="277.93 321.24 277.93 259.35 203.31 259.35 203.31 315.3 277.93 321.24"/><polygon class="cls-6" points="277.46 411.71 278.38 349.83 203.76 348.72 202.93 404.66 277.46 411.71"/></g></g></svg>