<svg xmlns="http://www.w3.org/2000/svg" viewBox="0 0 344.22 392.14"><defs><style>.cls-1{fill:#1ea856;}.cls-2{fill:#1fd86d;}</style></defs><g id="Lag_2" data-name="Lag 2"><g id="Lag_1-2" data-name="Lag 1"><path class="cls-1" d="M0,338.14v-28s64.79-88,64.81-88.06l3.27-8.34a1.27,1.27,0,0,1,.44-.56l85.6-61.87a1.28,1.28,0,0,0,.52-1.1l-1.78-34.48a1.32,1.32,0,0,1,.34-.93L163.13,104a1.27,1.27,0,0,1,2.21.86v6.69a1.27,1.27,0,0,0,2.27.78L175.68,102A1.27,1.27,0,0,0,176,101l-1.39-13.14a1.22,1.22,0,0,1,.21-.85l42.42-61.49,11.37,44.5,53.64,44.76a1.27,1.27,0,0,1,.46,1v15.07l8.09,5.67a1.27,1.27,0,0,0,2-1V125.34c0-1.15,42.46,25,43.25,25.8l7.86,24.43a1.26,1.26,0,0,1,0,1.77l-32.7,32.71a1.28,1.28,0,0,1-1.48.24l-9.41-4.78a1.27,1.27,0,0,0-1.63.42l-5,7.44a1.27,1.27,0,0,0,.53,1.87l8.72,4a1.27,1.27,0,0,1,.11,2.26l-27.32,15.89a1.28,1.28,0,0,0-.63,1.1v19.43a1.27,1.27,0,0,1-1.27,1.27H262a1.28,1.28,0,0,0-1.26,1.05l1.3-1.06c4,15,6,20.89,6,21l7,29c.05.59-14.53,3.7-15.1,3.87L198,332a1.27,1.27,0,0,0-.28,2.31l3.94,2.32a1.27,1.27,0,0,1-.37,2.34l-36,7.79-6.53,23L129,392.14l-37-44-20.73-8.81-25.08-2.42Z"/><path class="cls-2" d="M.19,310.52,57,196.64s0-.07,0-.11l3.27-8.34a1.34,1.34,0,0,1,.44-.56l85.6-61.87a1.24,1.24,0,0,0,.52-1.1l-1.77-34.48a1.27,1.27,0,0,1,.33-.93l9.93-10.84a1.27,1.27,0,0,1,2.21.85V86a1.28,1.28,0,0,0,2.28.79l8.07-10.34a1.27,1.27,0,0,0,.26-.92l-1.39-13.13a1.3,1.3,0,0,1,.22-.86L209.39,0l11.37,44.51L274.4,89.26a1.29,1.29,0,0,1,.46,1v14.41a1.28,1.28,0,0,0,.54,1L283,111a1.27,1.27,0,0,0,2-1V99.79a1.27,1.27,0,0,1,2.19-.88L336.07,150a1.27,1.27,0,0,1,0,1.78l-32.71,32.71a1.29,1.29,0,0,1-1.48.23L292.45,180a1.27,1.27,0,0,0-1.63.42l-5,7.44a1.27,1.27,0,0,0,.52,1.87l8.72,4a1.27,1.27,0,0,1,.11,2.26l-27.32,15.9a1.25,1.25,0,0,0-.63,1.09v19.43a1.27,1.27,0,0,1-1.27,1.27H254.16a1.27,1.27,0,0,0-1.25,1.05l-3,17.17a1.22,1.22,0,0,0,0,.33l3.07,34a1.28,1.28,0,0,1-.9,1.33l-61.89,18.94a1.28,1.28,0,0,0-.27,2.32l3.94,2.31a1.28,1.28,0,0,1-.38,2.34l-36,7.79-6.53,23L133.4,362.63,85,317l-21.53-3.25-25.09-2.42Z"/></g></g></svg>