<svg xmlns="http://www.w3.org/2000/svg" viewBox="0 0 356.67 399.77"><defs><style>.cls-1{fill:#fdea59;}.cls-2{fill:#fff;}</style></defs><g id="Lag_2" data-name="Lag 2"><g id="Lag_1-2" data-name="Lag 1"><path class="cls-1" d="M283.25,398.35l41.81-60.18a19.45,19.45,0,0,0,2.8-16.14l-10.71-39.68a31.84,31.84,0,0,1-.44-14.75l39.68-192a13.1,13.1,0,0,0-4.91-13.1l-45.9-34.82a.39.39,0,0,1-.14-.17L294,1.86a3.13,3.13,0,0,0-5.44-.51L254.21,50.93a.42.42,0,0,1-.25.18L115.05,87.68l-.08,0-46,21.48a.3.3,0,0,0-.13.09L30.36,148.87a.34.34,0,0,1-.09.08L.69,166.2a1.39,1.39,0,0,0-.52,1.87l18.49,34.26a.49.49,0,0,1,.05.16l8.67,82a.74.74,0,0,0,0,.14l19,40.5a.44.44,0,0,0,.19.19l38.25,21.43.11.05,73,16.95,45.8,9.89h.05l75.69,25.94A3.31,3.31,0,0,0,283.25,398.35Z"/><circle class="cls-2" cx="192.53" cy="147.84" r="13.83"/><path class="cls-2" d="M227.83,252l-13.72.08a1.16,1.16,0,0,0-.71,1.36l3.86,25c.11.61-.73.55-1.25.72l-23,.52a1.22,1.22,0,0,1-1.5-1.2l-4-102.21a1.13,1.13,0,0,1,.73-1.14l16.18-.16H208l59.94,99.19c.47.69.72,3.34,0,3.57l-29.26.71c-.52.17-1.16-1.58-1.42-2.14l-7.85-23.54A1.42,1.42,0,0,0,227.83,252Zm-5.58-14.27-17.41-41.37a1.09,1.09,0,0,0-2.07.67l7.68,40.36a1.19,1.19,0,0,0,1.47,1l9.62.05C222.18,238.23,222.57,238.4,222.25,237.72Z"/></g></g></svg>