<svg xmlns="http://www.w3.org/2000/svg" viewBox="0 0 356.67 440.98"><defs><style>.cls-1{fill:#ceb951;}.cls-2{fill:#fdea59;}</style></defs><g id="Lag_2" data-name="Lag 2"><g id="Lag_1-2" data-name="Lag 1"><path class="cls-1" d="M302.24,439.55,344,379.37c3.27-4.7,13.84-19.09,12.35-24.62l-8-35c-1.3-4.81-6-43.12-5-48v-76c0,18,1-5,0-21l11-109c-.06,0-29.93,3.06-30,3L313,43.06a3.13,3.13,0,0,0-5.44-.5L273.2,92.14a.37.37,0,0,1-.25.17L134,128.89l-.08,0-46,21.48a.45.45,0,0,0-.13.1L49.35,190.08a.31.31,0,0,1-.09.07L19.68,207.4a1.39,1.39,0,0,0-.52,1.87l18.49,34.27a.75.75,0,0,1,.05.16l8.67,82a.57.57,0,0,0,0,.14l19,40.5a.52.52,0,0,0,.19.2L103.82,388l.11,0,73,16.95,45.8,9.9h.05l75.69,25.94A3.33,3.33,0,0,0,302.24,439.55Z"/><path class="cls-2" d="M283.25,398.35l41.81-60.18a19.45,19.45,0,0,0,2.8-16.14l-10.71-39.68a31.84,31.84,0,0,1-.44-14.75l39.68-192a13.1,13.1,0,0,0-4.91-13.1l-45.9-34.82a.39.39,0,0,1-.14-.17L294,1.86a3.13,3.13,0,0,0-5.44-.51L254.21,50.93a.42.42,0,0,1-.25.18L115.05,87.68l-.08,0-46,21.48a.3.3,0,0,0-.13.09L30.36,148.87a.34.34,0,0,1-.09.08L.69,166.2a1.39,1.39,0,0,0-.52,1.87l18.49,34.26a.49.49,0,0,1,.05.16l8.67,82a.74.74,0,0,0,0,.14l19,40.5a.44.44,0,0,0,.19.19l38.25,21.43.11.05,73,16.95,45.8,9.89h.05l75.69,25.94A3.31,3.31,0,0,0,283.25,398.35Z"/></g></g></svg>