<svg xmlns="http://www.w3.org/2000/svg" viewBox="0 0 673.97 587.38"><defs><style>.cls-1,.cls-2{fill:none;stroke-miterlimit:10;}.cls-1{stroke:#fff;stroke-width:4px;}.cls-2{stroke:#3fa9f5;stroke-width:2px;}</style></defs><g id="Lag_2" data-name="Lag 2"><g id="Lag_1-2" data-name="Lag 1"><polygon class="cls-1" points="111.41 565.41 111.41 258.49 287.1 437.64 227.21 521.49 224.55 534.8 111.41 565.41"/><polyline class="cls-1" points="111.41 258.49 2 149.08 2 498.87 111.41 565.41"/><polygon class="cls-1" points="244.51 380.41 492.08 9.06 446.82 264.61 434.84 340.48 403.15 254.5 292.43 426.99 244.51 380.41"/><polygon class="cls-1" points="532.01 528.15 513.37 517.5 442.83 349.79 453.89 274.4 532.01 458.57 532.01 528.15"/><polygon class="cls-1" points="499.67 10.39 456.14 263.28 539.99 450.95 539.99 525.49 671.76 488.22 667.77 457.6 499.67 10.39"/><line class="cls-1" x1="669.1" y1="460.27" x2="541.32" y2="453.61"/><polyline class="cls-1" points="349.66 369.76 513.4 537.3 515.32 585.38 342.43 585.38 233.86 585.38 216.56 585.38 216.56 548.11 236.38 542.21 239.19 526.82 349.66 369.76"/><polygon class="cls-2" points="159.99 401.63 186.61 366.43 159.99 366.43 159.99 401.63"/><polygon class="cls-2" points="122.72 357.7 149.34 322.51 122.72 322.51 122.72 357.7"/><polygon class="cls-2" points="173.3 509.44 199.92 474.24 173.3 474.24 173.3 509.44"/><polygon class="cls-2" points="213.23 457.53 239.85 422.33 213.23 422.33 213.23 457.53"/><polygon class="cls-2" points="91.54 316.86 66.07 280.83 92.67 281.69 91.54 316.86"/><polygon class="cls-2" points="65.49 405.62 92.11 370.42 65.49 370.42 65.49 405.62"/><polygon class="cls-2" points="42.87 465.51 16.25 430.32 42.87 430.32 42.87 465.51"/><polygon class="cls-2" points="38.87 357.7 12.25 322.51 38.87 322.51 38.87 357.7"/><polygon class="cls-2" points="443.5 561.35 470.12 526.15 443.5 526.15 443.5 561.35"/><polygon class="cls-2" points="380.94 500.12 407.56 464.93 380.94 464.93 380.94 500.12"/><polygon class="cls-2" points="404.9 579.98 378.28 544.78 404.9 544.78 404.9 579.98"/><polyline class="cls-1" points="342.43 585.38 349.66 369.76 405.81 262.49"/><polygon class="cls-2" points="325.04 576.65 304.96 550.11 325.04 550.11 325.04 576.65"/><polygon class="cls-2" points="325.04 502.12 304.96 475.57 325.04 475.57 325.04 502.12"/><polygon class="cls-2" points="234.53 577.98 254.6 551.44 234.53 551.44 234.53 577.98"/><polygon class="cls-2" points="423.6 429.99 406.06 408.79 433.08 366.81 448.51 401.43 427.75 434.65 423.6 429.99"/><polygon class="cls-2" points="470.77 394.94 457.37 364.47 476.9 369.11 470.77 394.94"/><polygon class="cls-2" points="504.3 474.99 490.9 444.52 510.43 449.16 504.3 474.99"/><polygon class="cls-2" points="494.24 329.62 509.86 266.54 473.83 281.98 494.24 329.62"/><polygon class="cls-2" points="537.88 432.91 553.5 369.84 517.47 385.27 537.88 432.91"/><polygon class="cls-2" points="346.83 327.82 346.3 277.46 370.72 295.53 346.83 327.82"/></g></g></svg>