<svg xmlns="http://www.w3.org/2000/svg" viewBox="0 0 501 994.82"><defs><style>.cls-1{fill:#a87a63;}.cls-2{fill:#b7ccc3;}.cls-3{fill:#b7bcb8;}</style></defs><g id="Lag_2" data-name="Lag 2"><g id="Lag_1-2" data-name="Lag 1"><polygon points="197 753.71 337 536.71 501 536.71 141.48 994.82 0 994.82 197 753.71"/><polyline class="cls-1" points="11 881.71 27 372.19 19 353.91 46 343.58 119 56.71 191 338.69 217 351.95 210 363.12 217 881.71"/><polyline class="cls-2" points="118.37 72.03 115.66 36.54 125.44 35.8 119.14 68.97"/><circle class="cls-2" cx="121" cy="35.71" r="9"/><polyline class="cls-2" points="118.44 0 115.73 35.49 125.51 36.24 119.2 3.07"/><polygon class="cls-3" points="27 372.19 210 363.12 217 351.95 191 338.69 119 56.71 34.41 347.04 19 353.91 27 372.19"/></g></g></svg>