<svg xmlns="http://www.w3.org/2000/svg" viewBox="0 0 839.13 893.34"><defs><style>.cls-1{fill:none;stroke:#1fd86d;stroke-miterlimit:10;stroke-width:5px;}</style></defs><g id="Lag_2" data-name="Lag 2"><g id="Lag_1-2" data-name="Lag 1"><polyline class="cls-1" points="393.79 704.76 370.36 690.06 343.88 704.76 327.26 746.91"/><polyline class="cls-1" points="309.94 712.33 327.26 690.06 370.36 690.06"/><polyline class="cls-1" points="321.52 451.75 311.44 440.48 290.91 444 203.53 530.54 223.32 549.7 191.22 522.37"/><polygon class="cls-1" points="3.47 799.24 70.77 613.57 87.02 620.53 432.85 287.47 399.19 208.56 406.15 194 422.4 225.96 445.61 180.7 431.68 171.42 476.94 73.94 488.3 82.06 500.15 53.05 493.77 40.44 514.08 5.47 569.78 129.64 677.71 219 662.62 234.09 686.99 252.65 700.92 236.41 835.53 352.46 776.35 416.28 760.41 402.36 743.48 422.67 757.78 437.17 706.22 485.85 692.79 475.47 681.38 485.85 692.79 495.19 666.1 510.28 660.3 556.7 647.53 549.74 644.05 572.95 652.18 589.19 639.41 617.05 648.7 673.91 442.13 743.54 459.54 759.79 406.15 777.76 419.5 799.24 386.43 815.49 357.41 794.6 341.51 815.49 352.77 853.78 324.92 889.76 145.04 740.06 74.25 805.04 3.47 799.24"/><polyline class="cls-1" points="409.71 783.65 327.26 746.91 309.94 732.06 309.94 712.33 223.32 652.87 184.97 652.87 157.23 620.84 134.23 635.55 134.23 653.34 125.57 698.65 100.83 711.03 83.5 708.55 73.61 717.22 57.52 717.22 87.1 620.03"/><line class="cls-1" x1="615.12" y1="167.44" x2="134.23" y2="635.55"/><polyline class="cls-1" points="408.92 676.38 389.12 713.5 399.02 718.35 489.79 727.95"/><line class="cls-1" x1="632.88" y1="505.26" x2="482.63" y2="382.73"/><polyline class="cls-1" points="640.65 473.81 616.79 466.04 632.88 441.82 609.94 422.11 589.47 441.82 504.15 362.06"/><polyline class="cls-1" points="678.95 433.19 632.88 394.51 649.1 374.04 654.48 362.06 622.98 352.2 622.98 333.11 577.2 291.87"/><line class="cls-1" x1="726.53" y1="387.93" x2="590.69" y2="278.9"/><polyline class="cls-1" points="639.49 616.54 621.26 560.64 641.24 470.99 695.41 416.52 758.02 356.99 758.02 348.49 702.64 291.87 665.32 304.21 665.05 320.03 601.09 268.91"/><polyline class="cls-1" points="184.97 652.87 437.92 416.52 437.92 405.34 401.59 377.48"/><polyline class="cls-1" points="500.23 278.84 537.7 313.7 476.98 368.29 436.4 341.51"/><line class="cls-1" x1="437.92" y1="405.34" x2="476.97" y2="368.29"/><polyline class="cls-1" points="537.37 57.19 443.7 251.28 457.44 296.99 311.07 440.15"/><line class="cls-1" x1="621.26" y1="405.34" x2="537.7" y2="329.82"/><polyline class="cls-1" points="521.22 716.88 453.81 665.28 408.92 676.38 311.17 599.67 285.19 572.45 632.88 238.37 702.64 291.87"/><polyline class="cls-1" points="453.81 665.28 449.75 654.11 376.75 593.48 355.72 593.48 311.17 599.67 278.87 607.59 278.87 623.8 257.97 647.92 223.32 652.87"/></g></g></svg>