<?xml version="1.0" encoding="utf-8"?>
<!-- Generator: Adobe Illustrator 26.3.1, SVG Export Plug-In . SVG Version: 6.00 Build 0)  -->
<svg version="1.1" id="Lag_1" xmlns="http://www.w3.org/2000/svg" xmlns:xlink="http://www.w3.org/1999/xlink" x="0px" y="0px"
	 viewBox="0 0 1345.8 1539.7" style="enable-background:new 0 0 1345.8 1539.7;" xml:space="preserve">
<style type="text/css">
	.st0{fill:none;stroke:#000000;stroke-width:5;stroke-miterlimit:10;}
	.st1{fill:#FFFFFF;stroke:#000000;stroke-width:5;stroke-miterlimit:10;}
</style>
<g id="Lag_2_00000117655133189625095510000009339761733131107007_">
	<g id="Lag_1-2">
		<path class="st0" d="M1052.8,216.8l-17.6-63.1c-0.2-0.8-0.1-1.6,0.4-2.3l96.9-147.5c0.8-1.3,2.6-1.7,3.9-0.8c0.6,0.4,1,1,1.2,1.7
			l25.4,105.1c0.1,0.6,0.5,1.2,1,1.5l55.1,44.2c0.7,0.5,1.1,1.4,1.1,2.2v15.6c0,0.8,0.4,1.6,1,2.2l9.1,7.6c1.1,1,2.8,0.9,3.9-0.2
			l13.4-14.1c1.1-1.1,2.8-1.2,3.9-0.2l90.9,80.9c1.1,1,1.3,2.7,0.4,3.8l-54.1,70.2c-0.5,0.7-1.4,1.1-2.2,1.1h-19.8
			c-0.8,0-1.6,0.4-2.2,1l-13.7,16.5c-0.8,1-0.9,2.3-0.2,3.4l17.6,26.8c0.4,0.6,0.6,1.4,0.4,2.2l-19.1,86.9c0,0.2-0.1,0.4-0.1,0.6
			v55.4c0,1.6-1.3,2.8-2.8,2.8c-0.5,0-1-0.1-1.5-0.4l-36-22.2c-0.6-0.4-1.4-0.5-2.1-0.4l-70,15.8c-0.6,0.1-1.2,0.5-1.6,1l-15.8,19.8
			c-0.3,0.4-0.7,0.6-1.1,0.8l-24.1,10.6c-0.6,0.3-1,0.7-1.3,1.2l-21.4,39.5c-0.4,0.7-1,1.2-1.8,1.4l-42.2,10.7
			c-0.9,0.2-1.9,0-2.6-0.7l-75.6-70.5c-0.9-0.8-12.9,4.4-14,5l-26.2-10.6c-0.9,0.5-1.2,1.6-0.7,2.4c0.1,0.2,0.2,0.3,0.3,0.4l65,60.9
			c1.1,1.1,1.2,2.8,0.1,4c-0.1,0.1-0.2,0.2-0.2,0.2L933,624.4c-1.1,1-2.8,0.9-3.8-0.1l-36.7-36.6c-0.3-0.3-0.5-0.8-0.5-1.3v-20.8
			c0-1-0.8-1.8-1.8-1.8c-0.9,0-1.6,0.6-1.7,1.5l-7.3,44.7c-0.2,1-1.1,1.6-2,1.5c0,0-0.1,0-0.1,0l-55.9-12.6c-1-0.2-1.6-1.2-1.3-2.1
			l12-56.4c0.2-1-0.4-1.9-1.4-2.1c-0.8-0.2-1.6,0.3-2,1l-34.2,79.7c-0.3,0.7-0.2,1.5,0.4,2l40.5,40.3c0.3,0.3,0.5,0.8,0.5,1.3V714
			c0,0.4-0.1,0.7-0.3,1l-15,24c-0.5,0.8-0.3,1.9,0.5,2.5l24.3,15.5c0.4,0.3,0.7,0.7,0.8,1.1l16.4,75.7c0.1,0.5,0,1.1-0.4,1.5
			l-23.1,27.2c-0.6,0.7-1.8,0.8-2.5,0.2L820,847.5c-0.5-0.4-1.1-0.5-1.6-0.3l-19.3,5.6c-0.9,0.3-1.5,1.3-1.2,2.2
			c0.1,0.4,0.3,0.7,0.7,0.9l32.9,24.3l48.1,38.1c0.7,0.6,0.9,1.5,0.4,2.3l-61.1,103.6c-0.5,0.9-0.2,1.9,0.6,2.5
			c0.3,0.2,0.6,0.2,0.9,0.2h14.4c0.5,0,0.9,0.2,1.2,0.5l27.4,26.8c0.6,0.6,0.7,1.4,0.3,2.2l-58,103c-0.4,0.7-0.5,1.6-0.2,2.4
			l7.5,20.4c0.1,0.3,0.3,0.6,0.5,0.8l146,107c0,0.1,23,21,23,21l11,27c0.6,0.6-36.8,14-36.8,14.8l-9.4,112.1
			c-0.1,1.6-1.5,2.7-3.1,2.6c-0.1,0-0.2,0-0.3,0l-11.9-2.4c-0.6-0.1-1.3,0-1.9,0.3l-47.8,26c-0.9,0.5-1.5,1.4-1.5,2.5v12
			c0,1.6-1.3,2.8-2.8,2.8h-36.5c-1.2,0-2.2-0.7-2.6-1.8l-2.8-6.9c-0.4-0.9-1.2-1.6-2.2-1.8l-37-5.9c-0.8-0.1-1.6,0.1-2.2,0.6
			l-17.3,13.8c-1.2,1-1.4,2.8-0.4,4c0.1,0.1,0.1,0.1,0.2,0.2l21.3,21.7c1.1,1.1,1.1,2.9,0,4c-0.5,0.5-1.2,0.8-2,0.8H272
			c-1.3,0-2.5-0.9-2.8-2.2l-12.9-57.7c0-0.2-0.1-0.4-0.1-0.6v-20.1c0-0.6,0.2-1.1,0.5-1.6l32.7-48l0.1-0.1l12-20.1
			c0.7-1.1,0.5-2.5-0.4-3.4l-80.4-84.7c-0.1-0.1-0.2-0.2-0.4-0.3l-42.7-31.5l-38.4-29.6c-0.3-0.2-0.5-0.5-0.7-0.8l-24.4-42.3
			c-0.1-0.1-0.2-0.3-0.2-0.4l-31.7-85.6c0-0.1-0.1-0.2-0.2-0.4l-39.1-72c-0.1-0.2-0.1-0.3-0.2-0.5l-28.3-86.6
			c-0.1-0.3-0.1-0.6-0.1-0.9v-54.4c0-0.1,0-0.2,0-0.3l-12-104.9c-0.1-0.6,0.1-1.2,0.3-1.7L26,745.9c0.5-0.8,1.3-1.3,2.2-1.4l40.3-4
			h0.3l47-9.9c0.7-0.1,1.3-0.6,1.7-1.1l7.5-10.5c0.1-0.1,0.2-0.2,0.2-0.4l13.7-27.4l7-15.2c0.3-0.7,0.8-1.2,1.5-1.5l93.1-38.1
			l0.2-0.1l41.7-10.1h0.1l43.7-14.3l49.5-24.5c0.2-0.1,0.3-0.1,0.5-0.2l45.4-7.7c0.2,0,0.5,0,0.7,0l19.8,4.4
			c0.6,0.1,1.3-0.1,1.7-0.6l35.4-39.7l30.8-32.2c0.1-0.2,0.3-0.3,0.5-0.4l31.9-15.9c0.2-0.1,0.4-0.2,0.6-0.2l55.6-14.4
			c0.2-0.1,0.5-0.1,0.7-0.1h41.2c0.7,0,1.3-0.2,1.8-0.6l34-27.7l37.1-31.5c0.3-0.2,0.5-0.4,0.9-0.5l16.7-6.1l0.3-0.1l36.1-18.1
			c0.4-0.2,0.8-0.3,1.3-0.3h26.4c0.2,0,0.5,0,0.7,0.1l65.6,17.6c1.5,0.4,2.4,1.9,2,3.4c0,0,0,0.1,0,0.1L849.9,461
			c-0.1,0.5-0.2,1-0.1,1.4l1.5,6.8c0.3,1.5,1.8,2.5,3.4,2.2c1-0.2,1.8-1,2.1-2l23.8-85.4c0.1-0.3,0.2-0.6,0.4-0.8l26.2-39.5
			l18.6-26.9c0.9-1.3,2.7-1.6,3.9-0.7c0.8,0.5,1.2,1.4,1.2,2.3l0,0c0,1.6,1.3,2.8,2.8,2.8c0.7,0,1.3-0.2,1.9-0.7l116.3-101
			C1052.8,218.9,1053.1,217.8,1052.8,216.8z"/>
	</g>
</g>
<path class="st1" d="M1035.1,685.6c5.9,1.3,11.8-0.8,15-5.1c2.7-3.7,2.5-7.8,2.4-9.2c3.7,0,9.4,0.5,15.8,3c8.4,3.2,12.9,8,15.8,11
	l0,0c5.9,1.3,11.8-0.8,15-5.1c2.7-3.7,2.5-7.8,2.4-9.2c3.7,0,9.4,0.5,15.8,3c8.4,3.2,13.9,8.3,16.7,11.3"/>
<path class="st1" d="M1147.2,908.6c5.9,1.3,11.8-0.8,15-5.1c2.7-3.7,2.5-7.8,2.4-9.2c3.7,0,9.4,0.5,15.8,3c8.4,3.2,12.9,8,15.8,11
	l0,0c5.9,1.3,11.8-0.8,15-5.1c2.7-3.7,2.5-7.8,2.4-9.2c3.7,0,9.4,0.5,15.8,3c8.4,3.2,13.9,8.3,16.7,11.3"/>
<path class="st1" d="M957.2,1006.3c5.9,1.3,11.8-0.8,15-5.1c2.7-3.7,2.5-7.8,2.4-9.2c3.7,0,9.4,0.5,15.8,3c8.4,3.2,12.9,8,15.8,11
	l0,0c5.9,1.3,11.8-0.8,15-5.1c2.7-3.7,2.5-7.8,2.4-9.2c3.7,0,9.4,0.5,15.8,3c8.4,3.2,13.9,8.3,16.7,11.3"/>
<path class="st1" d="M1112.7,1201.6c5.9,1.3,11.8-0.8,15-5.1c2.7-3.7,2.5-7.8,2.4-9.2c3.7,0,9.4,0.5,15.8,3c8.4,3.2,12.9,8,15.8,11
	l0,0c5.9,1.3,11.8-0.8,15-5.1c2.7-3.7,2.5-7.8,2.4-9.2c3.7,0,9.4,0.5,15.8,3c8.4,3.2,13.9,8.3,16.7,11.3"/>
<path class="st1" d="M1006.6,1425.9c5.9,1.3,11.8-0.8,15-5.1c2.7-3.7,2.5-7.8,2.4-9.2c3.7,0,9.4,0.5,15.8,3c8.4,3.2,12.9,8,15.8,11
	l0,0c5.9,1.3,11.8-0.8,15-5.1c2.7-3.7,2.5-7.8,2.4-9.2c3.7,0,9.4,0.5,15.8,3c8.4,3.2,13.9,8.3,16.7,11.3"/>
</svg>
