<svg xmlns="http://www.w3.org/2000/svg" viewBox="0 0 633.61 691.05"><defs><style>.cls-1{fill:none;stroke:#fdea59;stroke-miterlimit:10;stroke-width:5px;}</style></defs><g id="Lag_2" data-name="Lag 2"><g id="Lag_1-2" data-name="Lag 1"><path class="cls-1" d="M502.64,681.6l73.85-120a14.58,14.58,0,0,0,1.12-13.07l-17.55-43.87a14.84,14.84,0,0,1-1-5.78l3.45-141.31a14.53,14.53,0,0,1,.56-3.65l67.52-236.32a14.6,14.6,0,0,0-7.29-17L555.73,65.41a14.55,14.55,0,0,1-6-5.91L522.51,10.06a14.61,14.61,0,0,0-23.65-2.73L451,60.52a14.55,14.55,0,0,1-6.19,4.07l-310.9,104.8a14.56,14.56,0,0,0-4.95,2.84L46.83,244.1A15,15,0,0,1,44.14,246l-34,18.29a14.58,14.58,0,0,0-6.87,17.63l27.45,79.3a14.44,14.44,0,0,1,.73,3.39l6.86,72a15.72,15.72,0,0,0,.37,2.16L62.27,533a14.57,14.57,0,0,0,4.73,7.6l39.93,33.79a14.66,14.66,0,0,0,6.45,3.15l167.5,34.89,118.26,20.87a14.5,14.5,0,0,1,5.45,2.16l77.63,50.76A14.6,14.6,0,0,0,502.64,681.6Z"/><polyline class="cls-1" points="418.13 642.68 432.39 589.21 346.83 557.12 318.31 617.73"/><polyline class="cls-1" points="230.97 599.9 259.49 519.69 346.83 557.12 383.59 495.27 366.25 464.48 414.81 417.46 447.76 454.27 506.12 431.01"/><polyline class="cls-1" points="259.49 519.69 230.97 508.51 159.67 587.43"/><polyline class="cls-1" points="106.93 574.34 172.15 472.09 230.97 508.51 274.33 441.26 259.49 407.22 316.81 362.83 368.54 364.61 375.35 307.33 385.32 288.17 432.39 288.17 453.78 275.49"/><polyline class="cls-1" points="172.15 472.09 118.67 439.48 106.93 362.83 31.49 364.57"/><line class="cls-1" x1="118.67" y1="439.48" x2="44.31" y2="461.09"/><line class="cls-1" x1="533.33" y1="631.74" x2="432.39" y2="589.21"/><polyline class="cls-1" points="44.14 245.96 44.31 298.66 13.02 309.94 81.49 286.52 159.67 289.99 192.81 396.7 159.67 464.48"/><path class="cls-1" d="M118.67,288.17S90.73,349.4,92.22,355.22"/><line class="cls-1" x1="168.95" y1="345.52" x2="113.3" y2="404.41"/><polyline class="cls-1" points="159.67 289.99 159.67 220.61 128.96 172.23"/><polyline class="cls-1" points="551.82 362.83 514.39 364.61 514.39 374.97 475.51 396.7 513.67 439.48 524.07 464.48 524.07 519.69 560.06 504.65"/><line class="cls-1" x1="513.67" y1="439.48" x2="514.39" y2="374.97"/><polyline class="cls-1" points="159.67 220.61 218.49 186.36 218.49 140.88"/><polyline class="cls-1" points="218.49 186.36 366.25 186.36 375.35 88"/><polyline class="cls-1" points="366.25 186.36 432.39 186.36 463.37 140.88 432.39 68.77"/><polyline class="cls-1" points="581.3 245.96 533.33 220.61 514.39 364.61"/><polyline class="cls-1" points="463.37 140.88 475.51 206.74 517.79 231.11"/><line class="cls-1" x1="591.71" y1="88" x2="533.33" y2="220.61"/><polyline class="cls-1" points="414.81 574.34 432.39 547.97 490.58 557.12 524.07 519.69"/><polyline class="cls-1" points="209.58 495.27 230.97 450.28 192.81 396.7"/><polyline class="cls-1" points="274.33 519.69 296.92 472.09 327.23 484.04 346.83 461.09 328.09 450.28 346.83 417.46 375.35 427 414.81 388.84 475.51 396.7"/><polyline class="cls-1" points="517.79 307.33 453.78 275.49 475.51 245.96 453.78 231.11 475.51 206.74"/><polyline class="cls-1" points="186.06 374.97 230.97 362.83 230.97 345.52 274.33 328.14 274.33 292.61 357.58 288.17 375.35 231.11 414.81 186.36"/><polyline class="cls-1" points="453.78 551.33 402.67 508.51 388.79 461.09 338.5 396.7 328.09 321.69 341.97 257.03 296.92 186.36 250.05 265.7 209.58 265.7 213.14 330.74 176.92 345.52"/></g></g></svg>