<svg xmlns="http://www.w3.org/2000/svg" viewBox="0 0 1345.79 1539.72"><defs><style>.cls-1{fill:none;stroke:#000;stroke-miterlimit:10;stroke-width:5px;}</style></defs><g id="Lag_2" data-name="Lag 2"><g id="Lag_1-2" data-name="Lag 1"><path class="cls-1" d="M1052.82,216.75l-17.55-63.14a2.89,2.89,0,0,1,.36-2.31L1132.5,3.78a2.82,2.82,0,0,1,5.11.89L1163,109.81a2.76,2.76,0,0,0,1,1.54l55.14,44.23a2.84,2.84,0,0,1,1.06,2.21v15.56a2.81,2.81,0,0,0,1,2.17l9.1,7.59a2.82,2.82,0,0,0,3.86-.22l13.38-14.07a2.84,2.84,0,0,1,3.93-.16l90.89,80.88a2.83,2.83,0,0,1,.36,3.84l-54.07,70.18a2.83,2.83,0,0,1-2.24,1.1h-19.81a2.84,2.84,0,0,0-2.18,1l-13.65,16.47a2.83,2.83,0,0,0-.19,3.36l17.64,26.81a2.83,2.83,0,0,1,.4,2.16l-19.12,86.89a2.48,2.48,0,0,0-.07.61v55.38a2.83,2.83,0,0,1-4.31,2.41l-36-22.2a2.79,2.79,0,0,0-2.11-.35L1137.05,513a2.78,2.78,0,0,0-1.59,1l-15.85,19.85a2.79,2.79,0,0,1-1.07.82l-24.09,10.59a2.78,2.78,0,0,0-1.34,1.24l-21.39,39.45a2.84,2.84,0,0,1-1.79,1.39l-42.17,10.74a2.84,2.84,0,0,1-2.64-.68L949.5,526.86c-.9-.84-12.92,4.4-14,5l-26.17-10.61a1.78,1.78,0,0,0-.35,2.86l65,60.94a2.82,2.82,0,0,1-.09,4.21L933,624.43a2.83,2.83,0,0,1-3.84-.14l-36.65-36.56a1.76,1.76,0,0,1-.53-1.26V565.62a1.79,1.79,0,0,0-3.55-.29L881.09,610a1.78,1.78,0,0,1-2.15,1.46l-55.88-12.62a1.78,1.78,0,0,1-1.35-2.11l12-56.43a1.79,1.79,0,0,0-3.39-1.08l-34.22,79.72a1.78,1.78,0,0,0,.38,2L837,661.23a1.75,1.75,0,0,1,.52,1.26V714a1.8,1.8,0,0,1-.27,1l-15,24a1.8,1.8,0,0,0,.55,2.45L847.07,757a1.79,1.79,0,0,1,.78,1.12l16.39,75.7a1.77,1.77,0,0,1-.38,1.53l-23.13,27.16a1.79,1.79,0,0,1-2.51.21L820,847.47a1.77,1.77,0,0,0-1.64-.34l-19.27,5.62a1.78,1.78,0,0,0-.56,3.15l32.9,24.26,48.1,38.09a1.79,1.79,0,0,1,.43,2.31l-61.13,103.56a1.79,1.79,0,0,0,1.54,2.7H834.8a1.78,1.78,0,0,1,1.25.51l27.4,26.85a1.79,1.79,0,0,1,.31,2.15l-58,103a2.89,2.89,0,0,0-.19,2.37l7.49,20.41a2.91,2.91,0,0,0,.48.84l146,107c0,.05,23,21,23,21l11,27c.56.59-36.76,14-36.83,14.76l-9.39,112.07a2.83,2.83,0,0,1-3.37,2.54L932,1464.87a2.85,2.85,0,0,0-1.9.3l-47.8,26a2.81,2.81,0,0,0-1.48,2.48v12a2.83,2.83,0,0,1-2.83,2.83H841.5a2.83,2.83,0,0,1-2.63-1.79l-2.75-6.9a2.82,2.82,0,0,0-2.18-1.75l-37.05-5.86a2.85,2.85,0,0,0-2.2.58l-17.35,13.76a2.84,2.84,0,0,0-.26,4.2l21.29,21.7a2.83,2.83,0,0,1-2,4.81H272a2.83,2.83,0,0,1-2.76-2.21l-12.86-57.71a3.17,3.17,0,0,1-.07-.61v-20.1a2.75,2.75,0,0,1,.5-1.59l32.71-48,.09-.14,12.05-20.13a2.82,2.82,0,0,0-.37-3.4l-80.38-84.69a2.91,2.91,0,0,0-.37-.33l-42.66-31.48-38.37-29.61a2.88,2.88,0,0,1-.72-.83l-24.37-42.29a3.42,3.42,0,0,1-.21-.43l-31.69-85.56c0-.13-.11-.25-.17-.37L43.24,1035.7a2.76,2.76,0,0,1-.2-.47L14.72,948.59a2.66,2.66,0,0,1-.14-.88V893.35c0-.11,0-.21,0-.32l-12-104.89a2.81,2.81,0,0,1,.35-1.73L26,745.86a2.86,2.86,0,0,1,2.18-1.41l40.35-4,.3,0,47-9.93a2.83,2.83,0,0,0,1.71-1.13l7.51-10.53a2.3,2.3,0,0,0,.23-.37L139,691.1l7-15.2a2.87,2.87,0,0,1,1.5-1.45l93.11-38.1.25-.08,41.7-10.12.13,0,43.73-14.26,49.54-24.54a2.24,2.24,0,0,1,.5-.16l45.37-7.67a1.78,1.78,0,0,1,.69,0l19.81,4.39a1.77,1.77,0,0,0,1.72-.56l35.41-39.74,30.79-32.2a1.76,1.76,0,0,1,.49-.37l31.87-15.94a2.69,2.69,0,0,1,.56-.21l55.64-14.41a2.82,2.82,0,0,1,.71-.09h41.18a2.85,2.85,0,0,0,1.79-.63l34-27.71,37.1-31.55a2.76,2.76,0,0,1,.86-.51l16.74-6.08.3-.13,36.11-18.11a2.79,2.79,0,0,1,1.27-.3h26.39a3,3,0,0,1,.73.09l65.58,17.63a2.83,2.83,0,0,1,2,3.56L849.93,461a2.89,2.89,0,0,0-.06,1.43l1.48,6.82a2.83,2.83,0,0,0,5.49.16L880.67,384a2.76,2.76,0,0,1,.37-.8l26.16-39.47,18.61-26.92a2.83,2.83,0,0,1,5.15,1.61h0a2.83,2.83,0,0,0,4.69,2.14l116.3-101A2.79,2.79,0,0,0,1052.82,216.75Z"/></g></g></svg>