<svg xmlns="http://www.w3.org/2000/svg" viewBox="0 0 943.31 820.59"><defs><style>.cls-1{fill:none;stroke:#3ebcff;stroke-miterlimit:10;stroke-width:5px;}</style></defs><g id="Lag_2" data-name="Lag 2"><g id="Lag_1-2" data-name="Lag 1"><path class="cls-1" d="M773,806.77l3.76-16.31a3.44,3.44,0,0,1,1.56-2.15l17.39-10.64a3.43,3.43,0,0,1,3.07-.25L830,789.87a3.45,3.45,0,0,0,1.59.23l58.23-5.39a3.48,3.48,0,0,0,2.11-1l21.91-21.91a3.54,3.54,0,0,0,.9-1.57l26-100.8a3.44,3.44,0,0,0-1.15-3.52l-22.72-18.58a2.86,2.86,0,0,0-.3-.22L704.39,499.39a3.44,3.44,0,0,1-1.35-1.68l-31.95-86.17-23.47-61.26-30-75.47a3.36,3.36,0,0,1-.23-.92L604.29,144.74a3.43,3.43,0,0,0-2.22-2.87l-90.56-33.82-.21-.07-36-10.91A3.34,3.34,0,0,1,474,96.3L444,68.42A3.36,3.36,0,0,1,443,67L431.5,31.35a3.42,3.42,0,0,0-1.93-2.11L367.1,2.77a3.44,3.44,0,0,0-3.57.55l-43.38,37a3.43,3.43,0,0,1-1.8.8l-33.91,4.24a3.55,3.55,0,0,1-1.55-.16L254,35.28a3.44,3.44,0,0,0-4.15,1.62L217.4,97.7a3.5,3.5,0,0,1-2.27,1.73L129,119a3.35,3.35,0,0,1-1.18.06l-73-8.84-.27,0L6.08,108.17a3.43,3.43,0,0,0-3.57,3.62L9,227.07a3,3,0,0,0,.14.79L38,324.44a3,3,0,0,0,.11.32l35.36,86.59c0,.13.11.25.17.37l30.16,54.46a3.41,3.41,0,0,0,.28.42l61.19,80.11.12.14L211,600.3l.13.14L260,651.54a3.23,3.23,0,0,0,.4.35l36.88,28.21a3.38,3.38,0,0,1,1.19,1.71l9.58,30.87a3.31,3.31,0,0,1,.16.94l1,46.78a3.44,3.44,0,0,0,4.11,3.29L351.58,756a3.44,3.44,0,0,1,3.64,1.64l17.37,29.62a3.34,3.34,0,0,0,1,1.07l41.35,29.09a3.43,3.43,0,0,0,2,.63H758.81A14.61,14.61,0,0,0,773,806.77Z"/><polyline class="cls-1" points="924.5 719.84 783.83 700.86 732.47 661.78 671.06 589.21 671.06 534.29 696.74 487.61 631.99 509.94 585.27 486.53 646.5 350.28 602.96 342.47 530.39 351.4 366.26 364.8 355.1 358.1 322.72 325.72 270.25 325.72 225.59 364.8 177.58 422.86 107.26 470.81 146.54 522.22 165.3 499.89 185.52 522.22 201.03 546.78 201.03 561.3 186.2 571.25 211.14 600.44 250.15 590.33 319.39 579.64 323.86 606.43 419.86 589.21 471.65 581 513.65 644.01 484.61 666.25 429.9 681.88 456 818.09 477.73 818.09 533.74 787.94 491.85 711.36 417.62 743.28 417.62 748.87 373.57 788.37 355.22 757.67"/><polyline class="cls-1" points="2.93 119.39 161.95 164.95 282.53 46.6 339.47 93.5 384.75 51.28 415 23.07 431.5 31.35 438.54 53.09 359.56 113.59 386.36 137.04 409.81 102.43"/><polyline class="cls-1" points="511.51 108.05 355.1 358.1 189.08 527.87 165.36 546.86"/><polyline class="cls-1" points="533.18 402.85 311.34 402.85 291.01 423.63 280.02 413.24 274.71 392.71 301.21 363.15 329.07 332.07"/><polyline class="cls-1" points="348.4 275.48 328.3 263.2 338.43 246.42 338.35 225.24 322.39 225.24 322.39 181.24 338.43 181.24 338.43 208.4 379.16 228.36"/><polyline class="cls-1" points="565 818.09 587.33 791.29 617.86 772.81 640.67 612.5 660.19 500.07 675.58 423.63"/><line class="cls-1" x1="621.4" y1="818.09" x2="617.86" y2="772.81"/><polyline class="cls-1" points="740.07 818.09 740.07 811.39 686.3 772.81 675.58 772.81 648.28 783.6 652.08 818.09"/><polyline class="cls-1" points="913.79 761.81 897.71 757.8 868.68 780.13 838.65 780.13 816.2 753.33 806.07 753.33 789.77 766.73 771.85 780.13 733.55 766.73 675.58 743.67 642.03 718.72 655.43 695.27 667.71 686.34 690.04 691.92 715.63 686.34 732.47 661.78"/><polyline class="cls-1" points="671.06 589.21 686.69 629.4 727.4 669.18 779.36 697.51 852.23 595.37 896.41 624.05 836.98 707.83"/><polyline class="cls-1" points="729.7 657.31 763.7 612.5 798.78 560.67"/><line class="cls-1" x1="761.99" y1="536.79" x2="671.06" y2="589.21"/><line class="cls-1" x1="725.3" y1="557.53" x2="740.07" y2="522.56"/><polyline class="cls-1" points="296.92 57.19 247.98 120.94 272.45 135.08 255.73 154.9 227.82 140.39 196.56 177.23 220.73 191.29 242.28 164.95"/><polyline class="cls-1" points="203.46 181.24 170.88 214.07 151.03 191.29 128.46 209.61 102.96 214.07 107.26 244.25 49.19 284.41 26.86 284.41 32.44 266.55 79.33 225.24 58.12 197.33"/><polyline class="cls-1" points="5.23 160.33 16.81 197.33 40.22 197.33 26.34 151.37"/><polyline class="cls-1" points="40.22 197.33 73.51 174.35 107.26 205.96 144.93 160.07"/><line class="cls-1" x1="73.51" y1="174.35" x2="88.29" y2="151.37"/><polyline class="cls-1" points="322.39 181.24 283.01 174.35 264.27 191.29"/><polyline class="cls-1" points="129.35 455.74 165.3 499.89 184.28 487.61 203.46 513.16 215.44 500.91 192.82 479.7 208.87 464.68 237.87 445.18 250.87 464.68 258.94 456.44 255.73 445.18 225.59 364.8"/><polyline class="cls-1" points="203.46 399.86 237.87 445.18 246.74 434.08 248.82 426.74"/><line class="cls-1" x1="208.87" y1="464.68" x2="177.58" y2="422.85"/><polyline class="cls-1" points="184.28 487.61 192.82 479.7 155.1 438.98"/><polyline class="cls-1" points="413.16 498.77 399.52 445.18 399.52 362.08 438.54 358.9 435.37 494.31 498.01 485.38 498.01 354.04 530.39 351.4 539.32 428.44 546.02 438.98 611.03 430.24 585.27 486.53 546.02 477.8 533.74 482.16 499.47 494.31"/><polyline class="cls-1" points="539.32 428.44 530.39 435.14 436.39 450.38 399.52 445.18"/><polyline class="cls-1" points="450.85 546.86 433.25 530.04 428.65 496.38 469.42 489.45 475.29 539.72"/><line class="cls-1" x1="433.25" y1="530.04" x2="414.42" y2="533.59"/><polyline class="cls-1" points="313.47 530.04 329.45 651.6 322.39 661.78 338.43 674.42 345.05 697.51 366.93 697.51 367.38 679.64"/><polyline class="cls-1" points="366.93 697.51 429.9 681.88 420.55 612.5 445.53 604.84 438.54 586.25 425.04 588.39 410.92 515.52 201.03 546.78 192.82 533.79 498.01 485.38 506.88 539.72 555.56 536.46 546.02 477.8 585.27 486.53 600.11 454.12 638.68 454.12 648.28 411.54 608.54 397.18 533.18 402.85 520.34 215.19 546.02 120.94"/><line class="cls-1" x1="410.52" y1="686.69" x2="414.42" y2="674.42"/><line class="cls-1" x1="451.97" y1="674.42" x2="451.97" y2="661.78"/><polyline class="cls-1" points="587.33 791.29 558.39 780.13 533.74 787.94"/><polyline class="cls-1" points="511.51 574.43 506.88 539.72 475.29 539.72 450.85 546.86 471.65 581 506.88 575.19 550.48 568 546.02 595.37 533.74 647.54 533.74 668.1 551.87 707.83 602.12 782.34"/><polyline class="cls-1" points="444.34 757.21 484.61 741.05 479.03 717.6"/><polyline class="cls-1" points="447.77 777.89 420.55 795.45 406.29 811.39"/><line class="cls-1" x1="630.99" y1="680.56" x2="555.56" y2="668.1"/><polyline class="cls-1" points="613 678.53 587.33 627.98 587.33 587.25"/><polyline class="cls-1" points="566.67 399.86 555.56 348.3 602.96 342.47 608.54 397.18"/><polyline class="cls-1" points="328.3 263.2 313.47 255.66 284.76 240.87 274.71 263.2 293.33 280.1 339.47 286.64 340.58 291.11"/><line class="cls-1" x1="313.47" y1="255.66" x2="322.39" y2="225.24"/><polyline class="cls-1" points="322.39 661.78 317.14 674.33 300.94 674.33 288.71 617.51 284.47 584.61 278.12 536.79"/><line class="cls-1" x1="246.27" y1="540.05" x2="260.01" y2="651.54"/><polyline class="cls-1" points="491.85 611.31 546.02 600.28 587.33 587.25 586.2 531.84 585.27 486.53"/><polyline class="cls-1" points="631.99 509.94 630.99 522.56 644.27 544.55"/><polyline class="cls-1" points="587.33 587.25 608.54 571.9 630.99 522.56"/><polyline class="cls-1" points="310.44 515.52 309.9 504.15 285.45 494.31 250.87 464.68 215.44 500.91 240.1 498.77 253.14 509.94 267.53 509.94 270.94 521.4 253.14 524.22"/><line class="cls-1" x1="267.53" y1="509.94" x2="285.46" y2="494.31"/><line class="cls-1" x1="317.14" y1="402.85" x2="309.9" y2="504.15"/><polyline class="cls-1" points="343.18 509.94 340.43 489.45 348.4 464.68 300.26 463.3 278.12 436.81"/><line class="cls-1" x1="611.03" y1="772.81" x2="533.74" y2="657.31"/><polyline class="cls-1" points="374.08 402.76 374.26 443.77 379.16 453.5 359.56 486.53 359.56 502.12 342.4 504.15"/><polyline class="cls-1" points="402.45 456.69 379.16 456.69 367.38 439.41 348.4 445.18 331.89 436.81 335.15 402.85"/><polyline class="cls-1" points="530.39 435.14 533.74 482.16 546.02 477.8 555.56 479.92 550.24 438.98"/><line class="cls-1" x1="586.36" y1="539.72" x2="555.56" y2="531.81"/><polyline class="cls-1" points="522.57 248.69 471.65 248.69 431.01 236.74"/><polyline class="cls-1" points="283.01 174.35 339.47 93.5 350.77 104.8 359.56 113.59"/><polyline class="cls-1" points="148.55 160.48 148.55 136.71 165.36 136.71 173.96 131"/><line class="cls-1" x1="76.83" y1="140.56" x2="80.9" y2="124.24"/><polyline class="cls-1" points="57 134.8 57.33 120.94 69.78 112.06"/><polyline class="cls-1" points="22.73 125.06 22.73 116.34 34.57 109.38"/><line class="cls-1" x1="610.77" y1="343.59" x2="615.24" y2="303.39"/><line class="cls-1" x1="630.32" y1="306.73" x2="602.12" y2="300.46"/><line class="cls-1" x1="613" y1="227.47" x2="522.63" y2="248.68"/><polyline class="cls-1" points="615.24 303.39 617.47 275.48 526.48 303.6"/><polyline class="cls-1" points="527.04 305.63 471.65 322.93 382.16 314.83"/><line class="cls-1" x1="498.01" y1="354.04" x2="491.85" y2="316.51"/><line class="cls-1" x1="471.21" y1="355.87" x2="469.42" y2="327.45"/><line class="cls-1" x1="441.07" y1="359.22" x2="438.54" y2="332.07"/><line class="cls-1" x1="414.27" y1="360.33" x2="412.47" y2="325.72"/><line class="cls-1" x1="360.78" y1="73.63" x2="318.35" y2="41.15"/><line class="cls-1" x1="384.75" y1="51.28" x2="342.4" y2="21.36"/><polyline class="cls-1" points="410.52 73.63 399.52 66.64 350.77 104.8"/><line class="cls-1" x1="417.44" y1="57.19" x2="399.52" y2="66.64"/><line class="cls-1" x1="410.62" y1="269.34" x2="370.99" y2="240.87"/><line class="cls-1" x1="331.89" y1="381.83" x2="270.25" y2="325.72"/><line class="cls-1" x1="274.71" y1="392.71" x2="260.01" y2="334.67"/><line class="cls-1" x1="306.6" y1="140.56" x2="272.45" y2="135.08"/><line class="cls-1" x1="220.73" y1="148.74" x2="196.56" y2="132.4"/><line class="cls-1" x1="196.56" y1="177.23" x2="161.95" y2="164.95"/><line class="cls-1" x1="491.85" y1="711.36" x2="484.61" y2="666.25"/><polyline class="cls-1" points="471.65 248.69 471.65 274.81 400.49 285.53 356.22 285.53 348.4 275.48 420.55 164.95 461.95 187.27"/><polyline class="cls-1" points="522.57 207.38 491.85 215.73 484.61 228.36 440.62 221.38 399.76 197.33"/><polyline class="cls-1" points="523.92 202.04 506.88 197.33 506.88 160.07 498.01 156.02 505.27 135.08 495.77 132.57"/><polyline class="cls-1" points="427.67 168.3 455.73 122.23 489.32 143.51"/><polyline class="cls-1" points="338.43 674.42 426.59 657.31 414.42 590.16"/><polyline class="cls-1" points="65.93 391.59 285.45 317.9 444.34 305.63 616.22 264.29"/><polyline class="cls-1" points="60.23 377.96 284.3 302.86 443.18 299.52 615.06 258.19"/><polyline class="cls-1" points="57 369.26 284.3 292.81 443.18 289.47 615.06 248.14"/><polyline class="cls-1" points="293.69 138.15 221.12 217.42 165.3 255.38 30.2 296.69"/><polyline class="cls-1" points="300.39 139.27 222.93 223.94 167.11 261.9 32.44 304.51"/><polyline class="cls-1" points="281.41 137.04 215.12 211.65 159.29 249.61 27.97 291.11"/><polyline class="cls-1" points="37.97 324.44 124.95 292.31 129.57 273.25"/><polyline class="cls-1" points="42.38 335.28 137.99 299.96 155.28 265.6"/><polyline class="cls-1" points="47.02 346.64 155.28 303.39 193.23 244.13"/><polyline class="cls-1" points="51.45 357.5 173.96 298.08 231.99 310.34"/><polyline class="cls-1" points="53.98 363.69 165.36 316.51 189.91 324.44"/><polyline class="cls-1" points="173.96 298.08 220.73 279.28 258.94 265.6 272.45 248.69 284.76 240.87"/><line class="cls-1" x1="550.48" y1="568" x2="555.56" y2="536.46"/><polyline class="cls-1" points="593.28 343.66 593.28 332.07 600.17 308.02 608.54 277.68"/><line class="cls-1" x1="642.03" y1="718.72" x2="625.24" y2="720.95"/></g></g></svg>