<svg xmlns="http://www.w3.org/2000/svg" viewBox="0 0 1134.84 427.43"><defs><style>.cls-1,.cls-3,.cls-4{fill:#8b5a4c;}.cls-1,.cls-2,.cls-3,.cls-5{stroke:#000;stroke-miterlimit:10;}.cls-2{fill:#64727b;}.cls-3{stroke-width:0.75px;}</style></defs><g id="Lag_2" data-name="Lag 2"><g id="Lag_1-2" data-name="Lag 1"><polygon class="cls-1" points="671.4 425.8 671.4 180.32 887.62 4.42 1077.4 215.11 1077.4 425.8 671.4 425.8"/><polygon class="cls-2" points="6.4 285.96 255.36 115.54 893.72 0.82 672.3 186.39 6.4 285.96"/><polygon class="cls-3" points="0.4 406.61 7.4 285.96 610.4 197.16 610.4 426.42 0.4 406.61"/><polygon class="cls-1" points="609.42 426.42 609.42 168.23 603.4 163.42 603.4 159.47 599.4 155.42 599.4 131.74 593.4 131.74 597.4 123.42 640.4 115.42 609.42 426.42"/><polygon class="cls-1" points="671.3 426.54 671.3 168.35 677.33 163.54 677.33 159.59 681.33 155.54 681.33 131.87 687.33 131.87 683.33 123.54 640.33 115.54 671.3 426.54"/><polyline class="cls-4" points="609.42 426.42 671.3 426.54 640.33 115.54"/><polygon class="cls-1" points="1067.98 426.23 1067.98 211.37 1062.88 207.36 1062.88 204.08 1059.48 200.71 1059.48 181 1054.4 181 1057.79 174.08 1094.25 167.42 1067.98 426.23"/><polygon class="cls-1" points="1120.45 426.33 1120.45 211.47 1125.56 207.47 1125.56 204.18 1128.95 200.81 1128.95 181.1 1134.04 181.1 1130.65 174.18 1094.19 167.52 1120.45 426.33"/><polyline class="cls-4" points="1094.19 167.52 1120.45 426.33 1067.98 426.23"/><polygon class="cls-2" points="883.39 9.42 1076.9 231.8 1076.9 215.58 893.65 0.82 883.39 9.42"/><polygon class="cls-4" points="1050.51 185.75 1059.48 174.42 1059.48 196.26 1050.51 185.75"/><line class="cls-1" x1="609.42" y1="426.93" x2="671.3" y2="426.93"/><line class="cls-1" x1="1068.03" y1="425.8" x2="1120.4" y2="425.8"/><path class="cls-5" d="M878.06,214.92h10.83a43,43,0,0,1,43,43V425.09a0,0,0,0,1,0,0h-98a0,0,0,0,1,0,0v-166A44.16,44.16,0,0,1,878.06,214.92Z"/></g></g></svg>