<svg xmlns="http://www.w3.org/2000/svg" viewBox="0 0 859.93 554.79"><defs><style>.cls-1{fill:#797c89;}.cls-2,.cls-4{fill:#b9b8bd;}.cls-3{fill:#3e241d;}.cls-4,.cls-5{stroke:#000;}.cls-4,.cls-5,.cls-8{stroke-miterlimit:10;}.cls-5,.cls-8{fill:none;}.cls-6{fill:#a49d8f;}.cls-7{fill:#629700;}.cls-8{stroke:#fff;stroke-width:3px;}.cls-9{fill:#f589b7;}.cls-10{fill:#d0bad4;}.cls-11{fill:#5861c5;}</style></defs><g id="Lag_2" data-name="Lag 2"><g id="Lag_1-2" data-name="Lag 1"><polygon class="cls-1" points="346.93 550.26 30.93 438.26 30.93 474.1 208.01 552.26 346.93 550.26"/><polygon class="cls-2" points="347.14 550.26 482.39 550.26 30.93 412.75 30.93 438.05 347.14 550.26"/><polygon class="cls-1" points="486.28 550.26 30.93 412.75 30.93 395.24 626.39 550.26 486.28 550.26"/><polygon class="cls-2" points="625.93 550.26 702.93 541.26 30.93 366.75 30.93 400.26 625.93 550.26"/><polygon class="cls-1" points="702.93 541.26 30.93 366.26 23.93 319.26 756.93 521.26 702.93 541.26"/><polygon class="cls-2" points="764.94 524.26 859.93 513.31 30.93 300.88 30.93 341.68 764.94 524.26"/><polygon class="cls-2" points="699.27 553.67 699.27 500.82 758.18 480.18 758.18 516.92 699.27 553.67"/><polygon class="cls-2" points="699.15 553.88 699.15 501.04 640.24 480.39 640.24 517.13 699.15 553.88"/><polygon class="cls-3" points="640.24 480.39 699.27 451.94 758.18 480.18 698.87 507.11 640.24 480.39"/><polygon class="cls-4" points="698.87 507.11 699.15 553.88 758.18 516.92 758.18 480.18 698.87 507.11"/><polygon class="cls-5" points="640.24 480.39 640.24 517.13 699.15 553.88 698.87 507.11 640.24 480.39"/><ellipse class="cls-6" cx="698.55" cy="480.38" rx="17.71" ry="8.05"/><polygon class="cls-6" points="693 479.52 693 285.9 704.28 479.52 693 479.52"/><path class="cls-7" d="M660.75,289l-27.18,25.81a1,1,0,0,1-1.69-.72V278.66a1,1,0,0,0-1-1l-20.93.13a1,1,0,0,1-.58-1.82l38.86-27.35a1,1,0,0,0-.2-1.74l-26.37-10.66a1,1,0,0,1-.34-1.62l19.35-19.67a1,1,0,0,0-.18-1.55L609.4,194.06a1,1,0,0,1,.46-1.85l60.55-4a1,1,0,0,0,.55-1.78l-28.75-22.26a1,1,0,0,1,.61-1.79h35.26a1,1,0,0,0,.8-.4l15.61-21a1,1,0,0,1,1.8.6v34.81a1,1,0,0,0,1,1l38-1.14a1,1,0,0,1,.68,1.76l-25.57,21.76a1,1,0,0,0,.52,1.75l25.7,3.28a1,1,0,0,1,.73,1.5l-8.14,13.54a1,1,0,0,0,.74,1.51l49.3,5.85a1,1,0,0,1,.42,1.83l-28,18.11a1,1,0,0,0-.39,1.19L763.67,281a1,1,0,0,1-1.35,1.26L731.45,268a1,1,0,0,0-1.37.59L720,298.85a1,1,0,0,1-1.64.4L703,284.38a1,1,0,0,0-1.63.36L695,301.36a1,1,0,0,1-1.61.38l-19.81-18a1,1,0,0,0-1.09-.17L661,288.86A1.27,1.27,0,0,0,660.75,289Z"/><polygon class="cls-2" points="90.34 413.13 90.34 360.28 149.25 339.64 149.25 376.38 90.34 413.13"/><polygon class="cls-2" points="90.22 413.34 90.22 360.5 31.31 339.85 31.31 376.6 90.22 413.34"/><polygon class="cls-3" points="31.31 339.85 90.34 311.4 149.25 339.64 89.94 366.57 31.31 339.85"/><polygon class="cls-4" points="89.94 366.57 90.22 413.34 149.25 376.38 149.25 339.64 89.94 366.57"/><polygon class="cls-5" points="31.31 339.85 31.31 376.6 90.22 413.34 89.94 366.57 31.31 339.85"/><ellipse class="cls-6" cx="89.62" cy="339.84" rx="17.71" ry="8.05"/><polygon class="cls-6" points="84.08 338.99 84.08 145.36 95.36 338.99 84.08 338.99"/><path class="cls-7" d="M51.82,148.51l-27.18,25.8a1,1,0,0,1-1.68-.72V138.12a1,1,0,0,0-1-1L1,137.25a1,1,0,0,1-.58-1.82L39.3,108.08a1,1,0,0,0-.2-1.74L12.73,95.68a1,1,0,0,1-.34-1.62L31.74,74.39a1,1,0,0,0-.18-1.55L.47,53.52a1,1,0,0,1,.46-1.85l60.56-4A1,1,0,0,0,62,45.85L33.28,23.59a1,1,0,0,1,.61-1.79H69.15a1,1,0,0,0,.8-.4L85.57.4a1,1,0,0,1,1.8.6V35.81a1,1,0,0,0,1,1l38-1.14a1,1,0,0,1,.68,1.76L101.55,59.19a1,1,0,0,0,.52,1.75l25.7,3.28a1,1,0,0,1,.73,1.51l-8.13,13.53a1,1,0,0,0,.74,1.51l49.29,5.85a1,1,0,0,1,.43,1.83l-28,18.11a1,1,0,0,0-.39,1.19l12.35,32.75a1,1,0,0,1-1.36,1.26l-30.87-14.33a1,1,0,0,0-1.37.59l-10.09,30.29a1,1,0,0,1-1.64.4L94,143.84a1,1,0,0,0-1.62.36L86,160.82a1,1,0,0,1-1.6.38l-19.82-18a1,1,0,0,0-1.09-.17l-11.42,5.26A1,1,0,0,0,51.82,148.51Z"/><path class="cls-8" d="M142.93,62.26c61.17-13.5,170-29,300,0a690.5,690.5,0,0,1,221,92"/><polygon class="cls-9" points="208.93 58.26 201.2 132.54 282.93 146.26 290.71 58.26 208.93 58.26"/><polygon class="cls-10" points="593.33 125.55 567.15 216.8 475.2 199.77 507.66 92.22 593.33 125.55"/><polygon class="cls-11" points="354.93 58.26 346.03 174.26 427.76 156.26 435.55 68.26 354.93 58.26"/></g></g></svg>