<svg xmlns="http://www.w3.org/2000/svg" viewBox="0 0 863.46 637.58"><defs><style>.cls-1,.cls-7{fill:#a3ddf4;}.cls-1{opacity:0.5;}.cls-2{fill:#008bbe;opacity:0.7;}.cls-3{fill:#bbd3db;}.cls-4{fill:#bfdde9;}.cls-5{fill:#ae9c8d;}.cls-6{fill:#8dc6de;}.cls-7{stroke:#a3ddf4;stroke-miterlimit:10;stroke-width:6px;}</style></defs><g id="Lag_2" data-name="Lag 2"><g id="Lag_1-2" data-name="Lag 1"><path class="cls-1" d="M719.45,618.81l-84.87-25.46a42.91,42.91,0,0,0-18.3-1.4L293.74,637.17a44.1,44.1,0,0,1-6,.41H186.71a42.87,42.87,0,0,1-15.44-2.87l-101-38.91a42.92,42.92,0,0,1-21-17.3L6.54,510.08a42.93,42.93,0,0,1,2.87-49.6l10.33-12.91a42.92,42.92,0,0,1,20.72-14.16l85.29-26.65a45.7,45.7,0,0,0,4.53-1.7L228,362a43,43,0,0,0,11.68-7.63l39.4-36.12a42.7,42.7,0,0,0,5.7-6.39l57.57-79.1A42.92,42.92,0,0,0,348.69,195l-8.05-26.46a42.81,42.81,0,0,0-9.86-17l-43.45-46a42.68,42.68,0,0,1-5-6.43h0a42.94,42.94,0,0,1,7.81-55.25l17.19-15.16a42.91,42.91,0,0,1,19.56-9.82L412,.92a43,43,0,0,1,39.21,11.66l61,61c.53.53,1.07,1,1.63,1.55L533,92.37a42.92,42.92,0,0,0,26.42,11l148.17,7.94a43,43,0,0,1,21.79,7.32l45,30.52a42.94,42.94,0,0,1,7,65.23l-3,3.11a43,43,0,0,0,2.45,61.73l82.6,73.66"/><path class="cls-2" d="M171.68,546.85c-1-1.78,33.37-41.83,80.65-43,39.39-1,54.85,25.81,83.88,14.19,19.19-7.68,19.51-22.23,42.41-28.49,17.76-4.85,20.45,3.11,45.92.45,30.14-3.15,36.25-15.33,51.47-9.71,15.75,5.8,16.59,21.56,30.24,21.88,10.82.25,14.15-9.57,26.64-9.19,9.69.28,20.83,6.59,21.53,13.79,1.06,10.88-21.25,28.38-41.62,26.73-23-1.85-31.66-27.08-46.27-22.7-11.39,3.41-11.4,20.31-23.24,22.28-10,1.66-12.73-9.83-24-10.66-18.93-1.4-25.72,30.2-48.17,32.23-15,1.36-17.44-12.26-34.92-11.34-19,1-21.95,17.4-39.43,17.18-16.47-.2-19.85-14.83-36.24-13-12.4,1.41-16.8,10.5-25,7.82-8.5-2.79-7-13.61-15-19.3C204.78,524.74,172.56,548.45,171.68,546.85Z"/><path class="cls-3" d="M535.69,137.45l-111,227.37a1.12,1.12,0,0,0,1,1.61H534.43"/><path class="cls-4" d="M549.61,366.75l121.17-7.35a.07.07,0,0,0,.06-.1L549.66,113.08a.07.07,0,0,0-.13,0V366.68A.07.07,0,0,0,549.61,366.75Z"/><polygon class="cls-5" points="535.81 111.76 549.53 106.58 549.53 404.55 534.43 405.8 535.81 111.76"/><path class="cls-6" d="M351.24,410.14a1.86,1.86,0,0,1,1.53-2.65l181.66-15.06,212.26-17.59a1.21,1.21,0,0,1,1.15,1.8l-42.67,75.13a88.56,88.56,0,0,1-77,44.81H449.85a90.92,90.92,0,0,1-82.08-51.8Z"/><line class="cls-7" x1="367.77" y1="444.78" x2="728.77" y2="410.22"/><path class="cls-2" d="M480.68,522.15c-1-1.78,33.38-41.83,80.66-43,39.38-1,54.85,25.81,83.88,14.19,19.18-7.69,19.51-22.23,42.4-28.49,17.76-4.85,20.45,3.11,45.93.45,30.13-3.15,36.25-15.33,51.47-9.72,15.75,5.81,16.58,21.57,30.23,21.88,10.82.26,14.16-9.56,26.64-9.19,9.7.29,20.83,6.6,21.53,13.8,1.06,10.88-21.24,28.37-41.62,26.73-23-1.86-31.65-27.08-46.27-22.7-11.38,3.41-11.4,20.31-23.24,22.28-10,1.65-12.73-9.84-23.95-10.67-18.93-1.39-25.72,30.21-48.17,32.24-15,1.35-17.45-12.26-34.93-11.34-19,1-21.94,17.4-39.42,17.18-16.47-.2-19.86-14.84-36.25-13-12.4,1.41-16.8,10.5-25,7.82-8.51-2.79-7-13.62-15-19.3C513.78,500,481.57,523.75,480.68,522.15Z"/><polygon class="cls-5" points="279.06 318.2 344.39 353.58 364.2 335.89 294.26 298.76 279.06 318.2"/><polygon class="cls-5" points="330.98 249.9 396.31 285.29 416.12 267.6 346.18 230.47 330.98 249.9"/><polygon class="cls-5" points="278.71 56.55 344.03 91.94 363.85 74.24 293.91 37.12 278.71 56.55"/><path class="cls-3" d="M275.52,333.45l-24.7,50.61a.25.25,0,0,0,.23.36h24.19"/><path class="cls-4" d="M278.62,384.49l27-1.63s0,0,0,0l-27-54.81s0,0,0,0v56.45Z"/><polygon class="cls-5" points="275.55 327.74 278.6 326.58 278.6 392.91 275.24 393.19 275.55 327.74"/><path class="cls-6" d="M234.46,394.15a.42.42,0,0,1,.34-.59l40.44-3.35,47.24-3.92a.27.27,0,0,1,.26.4l-9.5,16.73a19.71,19.71,0,0,1-17.14,10H256.41a20.24,20.24,0,0,1-18.27-11.53Z"/><line class="cls-7" x1="238.14" y1="401.86" x2="318.5" y2="394.17"/><path class="cls-3" d="M384.5,83.53,346,114.14a.22.22,0,0,0,0,.37l19.07,9.09"/><path class="cls-4" d="M367.76,124.93l21.87,8.85h0L389,80.43s0,0,0,0l-21.22,44.49S367.75,124.92,367.76,124.93Z"/><polygon class="cls-5" points="386.68 79.03 389.51 79.27 364.58 131.55 361.83 130.51 386.68 79.03"/><path class="cls-6" d="M329.32,115.94a.36.36,0,0,1,.49-.34L363,128.16l38.71,14.68a.24.24,0,0,1,0,.41l-13.77,9.61a17.19,17.19,0,0,1-17.26,1.42l-31.29-14.92a17.69,17.69,0,0,1-10.07-16Z"/><line class="cls-7" x1="329.32" y1="123.4" x2="395.55" y2="147.55"/><path class="cls-3" d="M790.51,327.58l-21.57,44.2a.22.22,0,0,0,.2.31h21.12"/><path class="cls-4" d="M793.21,372.16l23.56-1.43s0,0,0,0l-23.56-47.87s0,0,0,0v49.29S793.2,372.16,793.21,372.16Z"/><polygon class="cls-5" points="790.53 322.59 793.2 321.58 793.2 379.5 790.26 379.75 790.53 322.59"/><path class="cls-6" d="M754.65,380.59a.37.37,0,0,1,.3-.52l35.31-2.92,41.26-3.42a.24.24,0,0,1,.23.35l-8.3,14.6a17.2,17.2,0,0,1-15,8.71H773.82a17.68,17.68,0,0,1-16-10.07Z"/><line class="cls-7" x1="757.86" y1="387.32" x2="828.04" y2="380.6"/></g></g></svg>