<svg xmlns="http://www.w3.org/2000/svg" viewBox="0 0 517.37 404.07"><defs><style>.cls-1{fill:#1c2023;stroke:#fff;stroke-miterlimit:10;}.cls-2{fill:#fff;}</style></defs><g id="Lag_2" data-name="Lag 2"><g id="Lag_1-2" data-name="Lag 1"><polyline class="cls-1" points="0.5 14.46 15.5 1.46 515.5 1.46 505.5 14.46"/><polyline class="cls-1" points="505.5 279.46 505.5 14.46 0.5 14.46 0.5 279.46 506.5 279.46"/><polygon class="cls-1" points="515.5 1.46 505.5 14.46 505.5 279.46 516.87 274.11 515.5 1.46"/><path class="cls-2" d="M140.94,90.92H118.05V71h67.66v19.9H162.83V210.33H140.94Z"/><path class="cls-2" d="M256.56,85.15c2.58,5.18,3.78,11.54,3.78,18.91v73.23c0,22.29-11.74,35-33.24,35-8,0-14.72-1.8-19.9-5.18l-3.38,8.36-11.94-5.17,5.77-14.13c-2.59-5.18-3.78-11.55-3.78-18.91V104.06c0-22.29,11.74-35,33.23-35,8,0,14.73,1.79,19.9,5.18l3.39-8.36L262.33,71Z"/><path class="cls-2" d="M215.76,151.42l22.09-54.53c-1.39-5.77-5.37-8-10.75-8-7,0-11.34,3.78-11.34,13.73Z"/><path class="cls-2" d="M238.45,125.93l-22.09,54.52c1.39,5.78,5.37,12,10.74,12,7,0,11.35-7.78,11.35-17.73Z"/><path class="cls-2" d="M275.06,71H307.5c22.68,0,32.44,10.55,32.44,32v8.56c0,14.33-4.58,23.48-14.33,27.46v.4c10.94,3.38,14.52,13.73,14.52,29.45v24.48c0,6.77.2,11.74,2.39,16.92H320.23c-1.19-3.59-2-5.78-2-17.12V167.74c0-12.94-3.78-17.12-13.73-17.12H297v59.71H275.06Zm29.85,59.7c8.16,0,13.14-3.58,13.14-14.72V105.25c0-10-3.39-14.33-11.15-14.33H297v39.8Z"/><path class="cls-2" d="M348.69,71h22.09l14.53,109.45L399.83,71h20.1L398.84,210.33H369.78Z"/><polyline class="cls-1" points="107.01 280.46 107.01 403.57 78.8 403.57 78.8 280.46"/><polyline class="cls-1" points="416.55 280.31 416.55 403.42 388.34 403.42 388.34 280.31"/></g></g></svg>