<svg xmlns="http://www.w3.org/2000/svg" viewBox="0 0 640.91 554.14"><defs><style>.cls-1{fill:#3ebcff;}.cls-2{fill:#fff;}</style></defs><g id="Lag_2" data-name="Lag 2"><g id="Lag_1-2" data-name="Lag 1"><path class="cls-1" d="M396.9,550.6a3.63,3.63,0,0,0-3.73-3.53H234.44a3.72,3.72,0,0,1-3.61-2.62l-7.37-26a3,3,0,0,1-.11-.52l-1.95-16.24a3.63,3.63,0,0,0-3.1-3.1L191,494.41a3.62,3.62,0,0,1-3.13-3.33l-1-21a3.49,3.49,0,0,0-1.28-2.51L76,377.26a3.47,3.47,0,0,1-.94-1.21l-71-147.54a3.47,3.47,0,0,1-.33-1.3S-1.64,81.82.5,81.82H77.06a3.55,3.55,0,0,0,.86-.1l47.42-10.61A4,4,0,0,0,127,70.3l24.59-20.82a3.43,3.43,0,0,0,1.21-2.18l3-21.81a3.74,3.74,0,0,1,4.94-2.88l28.07,9.32a3.92,3.92,0,0,0,2.93-.19l21.54-10.42a4.08,4.08,0,0,0,.57-.34l28-20.25A3.89,3.89,0,0,1,244.08,0h38.84a3.83,3.83,0,0,1,1.26.21l35.41,11.94a3.71,3.71,0,0,1,2,1.59L338,41.17a3.25,3.25,0,0,1,.45,1.24L342.07,66a3.7,3.7,0,0,0,3.87,3l73.4-3.15a3.72,3.72,0,0,1,3.8,2.69L485.3,308a3.57,3.57,0,0,0,1.85,2.27l101.24,52a4.51,4.51,0,0,1,.72.48l50.56,43.11a3.46,3.46,0,0,1,1.15,3.41l-19.31,81.24a3.6,3.6,0,0,1-.44,1l-28,44.61a3.76,3.76,0,0,1-2.32,1.63l-39,9a3.94,3.94,0,0,1-2.68-.33l-32.89-17.07a4,4,0,0,0-3.11-.21l-17.57,6.24a3.84,3.84,0,0,0-1.21.7l-11.79,10.2a3.88,3.88,0,0,1-2.17.91L401,554.12a3.66,3.66,0,0,1-4.08-3.52Z"/><path class="cls-2" d="M253.36,267.21l-37-53.6a.8.8,0,0,1,.77-1.24l41.84,6.2a.79.79,0,0,1,.63.51l8.29,22.15a.79.79,0,0,0,1.48,0L299,163.61a.79.79,0,0,1,.74-.51h45.87a.79.79,0,0,1,.67,1.21L282,267.24a.8.8,0,0,0,0,.82l45,76.29a.79.79,0,0,1-.9,1.16L282.7,333.1a.8.8,0,0,1-.52-.48l-14.93-38.87a.79.79,0,0,0-1.48,0l-31.18,82.83a.79.79,0,0,1-.74.52H183.91a.8.8,0,0,1-.67-1.23L253.37,268.1A.8.8,0,0,0,253.36,267.21Z"/></g></g></svg>