<svg xmlns="http://www.w3.org/2000/svg" viewBox="0 0 664.28 443.4"><defs><style>.cls-1,.cls-2,.cls-3{fill:#008bbe;}.cls-1{opacity:0.7;}.cls-2{opacity:0.9;}.cls-3{opacity:0.8;}.cls-4{fill:#212b35;stroke:#ccc;stroke-miterlimit:10;}.cls-5{fill:#fff;}</style></defs><g id="Lag_2" data-name="Lag 2"><g id="Lag_1-2" data-name="Lag 1"><path class="cls-1" d="M.07,358.55c-1.45-1.44,20.5-49.43,65.61-63.66,37.58-11.84,59.85,9.64,84.53-9.56,16.32-12.68,12.61-26.75,32.88-39.1,15.72-9.57,20.51-2.66,44.25-12.26,28.09-11.36,30.6-24.76,46.78-23.57,16.74,1.22,21.9,16.13,35.11,12.67,10.47-2.75,11-13.11,23.06-16.2,9.39-2.41,21.84.58,24.51,7.3,4,10.17-12.58,33.14-32.61,37.2-22.6,4.57-37.91-17.27-50.74-9-10,6.43-5.34,22.67-16.18,27.84-9.11,4.35-14.95-5.93-26-3.62-18.58,3.89-16.37,36.13-37.38,44.29-14,5.46-20.15-7-36.7-1.24-18,6.22-16.28,22.79-33.13,27.42-15.89,4.36-23.19-8.77-38.42-2.45C74.14,339.36,72.43,349.31,63.8,349c-8.95-.32-10.49-11.15-19.74-14.4C25.76,328.15,1.36,359.84.07,358.55Z"/><path class="cls-1" d="M53.23,433.85c-1.44-1.44,20.51-49.44,65.61-63.66,37.58-11.85,59.85,9.64,84.53-9.56,16.32-12.69,12.61-26.75,32.88-39.1,15.72-9.57,20.51-2.67,44.26-12.27,28.09-11.35,30.6-24.75,46.78-23.56,16.74,1.22,21.89,16.13,35.1,12.66,10.47-2.75,11-13.1,23.06-16.19,9.4-2.41,21.84.58,24.51,7.3,4,10.16-12.57,33.14-32.61,37.2-22.59,4.57-37.91-17.27-50.74-9-10,6.43-5.34,22.67-16.18,27.84-9.11,4.35-14.95-5.93-26-3.62-18.59,3.89-16.37,36.13-37.39,44.29-14,5.46-20.15-7-36.7-1.24-18,6.22-16.27,22.79-33.13,27.42-15.89,4.35-23.19-8.77-38.42-2.45-11.53,4.78-13.24,14.73-21.87,14.42-8.94-.32-10.49-11.15-19.73-14.41C78.92,403.45,54.52,435.14,53.23,433.85Z"/><path class="cls-2" d="M241.64,435.87c-.83-.82,11.77-28.39,37.68-36.55,21.57-6.81,34.36,5.53,48.54-5.49,9.37-7.29,7.24-15.37,18.88-22.46,9-5.5,11.78-1.53,25.42-7,16.13-6.52,17.57-14.22,26.86-13.54,9.61.71,12.57,9.27,20.16,7.28,6-1.58,6.29-7.53,13.24-9.3,5.4-1.38,12.54.33,14.08,4.19,2.31,5.84-7.22,19-18.73,21.36-13,2.63-21.77-9.92-29.14-5.18-5.74,3.69-3.07,13-9.29,16-5.23,2.49-8.58-3.41-14.91-2.09-10.67,2.24-9.4,20.76-21.47,25.44-8.06,3.13-11.57-4-21.07-.71-10.33,3.57-9.35,13.09-19,15.74-9.13,2.51-13.32-5-22.07-1.4-6.62,2.74-7.6,8.46-12.55,8.28-5.14-.19-6-6.4-11.34-8.27C256.39,418.41,242.38,436.61,241.64,435.87Z"/><path class="cls-3" d="M54.59,257c-.82-.83,11.78-28.39,37.68-36.56,21.58-6.81,34.37,5.53,48.55-5.49,9.37-7.29,7.24-15.37,18.88-22.45,9-5.5,11.78-1.54,25.41-7.05,16.13-6.52,17.58-14.21,26.87-13.53,9.61.7,12.57,9.26,20.16,7.27,6-1.58,6.29-7.52,13.24-9.3,5.4-1.38,12.54.33,14.07,4.19,2.32,5.84-7.22,19-18.72,21.36-13,2.63-21.77-9.91-29.14-5.18-5.74,3.69-3.07,13-9.29,16-5.23,2.49-8.59-3.41-14.91-2.08-10.67,2.23-9.4,20.75-21.47,25.43-8.07,3.14-11.57-4-21.08-.71-10.32,3.57-9.34,13.09-19,15.75-9.13,2.5-13.32-5-22.07-1.41-6.62,2.74-7.6,8.46-12.56,8.28-5.13-.18-6-6.4-11.33-8.27C69.35,239.53,55.34,257.72,54.59,257Z"/><polygon class="cls-4" points="15.16 199.04 15.16 45.65 180.7 0.65 180.7 138.03 15.16 199.04"/><polygon class="cls-4" points="180.7 138.03 430.81 183.41 430.81 43.22 180.7 0.65 180.7 138.03"/><path class="cls-5" d="M302.72,43.58l4.31.71-2.69,26.78,17.35-24.36,4.54.74-12,30.66-3-.49,10.46-26.71L303.56,76.35,301.25,76l2.66-28L293.4,74.68l-2.68-.44Z"/><path class="cls-5" d="M338.13,67.47a9.35,9.35,0,0,1-.47,1.71l-3,7.59a22.86,22.86,0,0,0-1.36,4.48l-2.15-.35a12.29,12.29,0,0,1,.68-2.53,6.84,6.84,0,0,1-6.35,2c-3.37-.55-5-2.73-4.52-5.84.58-3.52,3.34-4.69,7.65-4.65,5.2.08,6,.07,6.76-1.37l.12-.29a4.21,4.21,0,0,0,.28-1c.32-1.93-1-3.35-3.31-3.73s-4.5.62-5.12,3l-2.23-.37c.95-3.42,3.71-5.3,7.76-4.63C336.12,62,338.7,64,338.13,67.47ZM333,74.59l1.28-3.25c-.78.46-2.17.42-5.4.44s-5.12.59-5.52,3c-.33,2,.72,3.23,3.1,3.63C329.25,78.88,331.62,77.75,333,74.59Z"/><path class="cls-5" d="M358,66l-7.34,18.82c-1.45,3.57-3.76,5.1-7.88,4.42-3.68-.61-6.61-2.65-5.77-6l2.34.39c-.5,2.13,1.68,3.27,3.84,3.62,2.65.44,4.16-.48,5.16-3l1.49-3.8a6.86,6.86,0,0,1-6,1.54c-3.3-.54-5-2.49-4.47-5.48a9.48,9.48,0,0,1,.61-2l2.22-5.66c.74-1.9,2.43-5.31,7.09-4.55,3.14.52,5,2.5,5.08,5.27l1.48-3.8Zm-6.54,10.16,1.41-3.58c.1-.37.2-.74.26-1.08a4.25,4.25,0,0,0-3.73-5.2c-3.41-.57-4.47,2.06-5,3.37l-1.94,4.89a9.62,9.62,0,0,0-.46,1.6c-.36,2.2.72,3.46,3,3.84C348,80.48,350.13,79.13,351.47,76.16Z"/><path class="cls-5" d="M373.56,73.31a9.35,9.35,0,0,1-.47,1.71l-3,7.59a22.72,22.72,0,0,0-1.36,4.49l-2.15-.36a12.46,12.46,0,0,1,.68-2.53,6.84,6.84,0,0,1-6.35,2c-3.37-.55-5-2.73-4.52-5.83.58-3.53,3.34-4.7,7.65-4.65,5.2.08,6.05.06,6.76-1.38l.12-.29a4.28,4.28,0,0,0,.28-1c.32-1.94-1-3.36-3.31-3.74s-4.5.62-5.12,3l-2.23-.37c1-3.42,3.71-5.3,7.76-4.63C371.55,67.85,374.13,69.87,373.56,73.31Zm-5.14,7.13,1.28-3.26c-.78.46-2.17.42-5.4.44s-5.12.59-5.52,3c-.33,2,.72,3.23,3.1,3.63C364.68,84.72,367.05,83.59,368.42,80.44Z"/><path class="cls-5" d="M388.13,75.48c.29-1.74-1.17-3-3.48-3.37-2.65-.44-4.32.68-4.63,2.58-.35,2.12,1.35,2.9,3.41,4.1s4.3,2.65,3.76,6c-.58,3.52-3.43,5.19-7.55,4.51-3.45-.56-6.24-2.5-5.64-6.14a4.4,4.4,0,0,1,.21-.82l2.27.38a4.42,4.42,0,0,0-.22.89c-.31,1.9,1.22,3.24,3.71,3.65,3,.49,4.59-.68,4.91-2.65.36-2.16-1.31-2.9-3.44-4.15-2.55-1.47-4.27-2.84-3.78-5.83.58-3.48,3.42-5.19,7.21-4.57,3.41.56,6,2.55,5.52,5.7,0,.22-.13.52-.22.82l-2.23-.37A3.62,3.62,0,0,0,388.13,75.48Z"/><path class="cls-5" d="M396.43,72.34l2.38.39L391.7,90.88l-2.39-.39Zm3-7.44,2.35.38-1.59,4-2.34-.39Z"/><path class="cls-5" d="M415.33,79.85a10.26,10.26,0,0,1-.56,2l-4.71,12.09-2.39-.39,4.64-11.84a8.29,8.29,0,0,0,.45-1.59c.36-2.16-.67-3.46-2.94-3.83-2.77-.46-4.9.94-6.28,3.86l-4.61,12-2.43-.4,7.12-18.16,2,.34-1,2.52a6.67,6.67,0,0,1,6.33-2C414.24,74.89,415.84,76.78,415.33,79.85Z"/><path class="cls-5" d="M337.9,58.38l-3-3.74a.31.31,0,0,0-.36-.09l-4.86,2.2a.3.3,0,0,1-.35-.47l2.81-3.34a.31.31,0,0,0,0-.41l-3.17-3a.3.3,0,0,1,.25-.52l4.64.77a.34.34,0,0,0,.28-.11l4.23-5.32a.3.3,0,0,1,.53.22l-.65,5.64a.31.31,0,0,0,.25.33l5.12.84a.3.3,0,0,1,.05.58l-5.15,1.86a.31.31,0,0,0-.2.29l.1,4A.31.31,0,0,1,337.9,58.38Z"/><polyline class="cls-4" points="15.16 45.65 180.7 0.65 430.81 43.22 415.42 16.46"/><path class="cls-4" d="M362.11,181.85l12.44,13.67,70,76.86a4,4,0,0,1,.59.87l45.6,93.6a3.64,3.64,0,0,1,.38,1.62v55.44a3.7,3.7,0,0,0,3.35,3.69L653,442.85a9.82,9.82,0,0,0,10.77-9.78V389.84a3.71,3.71,0,0,0-.33-1.54L615.3,282.69a3.33,3.33,0,0,0-.42-.7L579,234.64a3.75,3.75,0,0,0-.78-.76L446.39,138a3.71,3.71,0,0,0-5.88,3.14l1.92,52.25"/></g></g></svg>