<?xml version="1.0" encoding="UTF-8"?><svg xmlns="http://www.w3.org/2000/svg" viewBox="0 0 40 40"><g id="a"/><g id="b"><g id="c"><g><path d="M13.63,4V13.63H4V4H13.63M15.76,0H1.87C.84,0,0,.84,0,1.87V15.76c0,1.03,.84,1.87,1.87,1.87H15.76c1.03,0,1.87-.84,1.87-1.87V1.87c0-1.03-.84-1.87-1.87-1.87h0Z"/><path d="M13.63,26.37v9.63H4v-9.63H13.63m2.13-4H1.87c-1.03,0-1.87,.84-1.87,1.87v13.89c0,1.03,.84,1.87,1.87,1.87H15.76c1.03,0,1.87-.84,1.87-1.87v-13.89c0-1.03-.84-1.87-1.87-1.87h0Z"/><path d="M36,4V13.63h-9.63V4h9.63m2.13-4h-13.89c-1.03,0-1.87,.84-1.87,1.87V15.76c0,1.03,.84,1.87,1.87,1.87h13.89c1.03,0,1.87-.84,1.87-1.87V1.87c0-1.03-.84-1.87-1.87-1.87h0Z"/><path d="M36,26.37v9.63h-9.63v-9.63h9.63m2.13-4h-13.89c-1.03,0-1.87,.84-1.87,1.87v13.89c0,1.03,.84,1.87,1.87,1.87h13.89c1.03,0,1.87-.84,1.87-1.87v-13.89c0-1.03-.84-1.87-1.87-1.87h0Z"/></g></g></g></svg>