<?xml version="1.0" encoding="UTF-8"?><svg xmlns="http://www.w3.org/2000/svg" viewBox="0 0 50 50"><defs><style>.d{fill:#fff;}.e{fill:#1d1d1b;}</style></defs><g id="a"/><g id="b"><g id="c"><g><circle cx="25" cy="25" r="23.5"/><path class="d" d="M25,3c12.13,0,22,9.87,22,22s-9.87,22-22,22S3,37.13,3,25,12.87,3,25,3m0-3h0C11.19,0,0,11.19,0,25H0c0,13.81,11.19,25,25,25h0c13.81,0,25-11.19,25-25h0C50,11.19,38.81,0,25,0h0Z"/><path class="e" d="M25,1.4c13.01,0,23.6,10.59,23.6,23.6s-10.59,23.6-23.6,23.6S1.4,38.01,1.4,25,11.99,1.4,25,1.4m0-1.4h0C11.19,0,0,11.19,0,25H0c0,13.81,11.19,25,25,25h0c13.81,0,25-11.19,25-25h0C50,11.19,38.81,0,25,0h0Z"/><path class="d" d="M25,.7c13.4,0,24.3,10.9,24.3,24.3s-10.9,24.3-24.3,24.3S.7,38.4,.7,25,11.6,.7,25,.7m0-.7h0C11.19,0,0,11.19,0,25H0c0,13.81,11.19,25,25,25h0c13.81,0,25-11.19,25-25h0C50,11.19,38.81,0,25,0h0Z"/></g><rect class="d" x="12.19" y="15.78" width="25.62" height="2.59"/><rect class="d" x="12.19" y="23.05" width="25.62" height="2.59"/><rect class="d" x="12.19" y="30.33" width="25.62" height="2.59"/></g></g></svg>