<?xml version="1.0" encoding="UTF-8"?><svg xmlns="http://www.w3.org/2000/svg" viewBox="0 0 43.2 42.29"><defs><style>.d{fill:#1d1d1b;}</style></defs><g id="a"/><g id="b"><g id="c"><g><g><path class="d" d="M21.21,41.03c-.41,0-.83-.01-1.25-.04-9.88-.6-17.89-8.5-18.64-18.37C.63,13.44,6.31,4.98,14.94,2.13c-1.21,2.81-1.83,5.78-1.83,8.84,0,12.4,10.08,22.49,22.47,22.49,.42,0,.84-.01,1.26-.04-3.77,4.78-9.55,7.61-15.64,7.61Z"/><path class="d" d="M12.79,4.39c-.62,2.13-.93,4.33-.93,6.58,0,12.56,9.79,22.88,22.14,23.7-3.44,3.24-8.01,5.1-12.79,5.1-.39,0-.78-.01-1.17-.04-9.25-.56-16.76-7.96-17.45-17.2-.58-7.66,3.58-14.79,10.21-18.14M15.76,.6c-.07,0-.14,0-.21,.03C6.08,3.24-.73,12.25,.06,22.72c.79,10.45,9.36,18.89,19.82,19.53,.44,.03,.89,.04,1.33,.04,7.11,0,13.39-3.51,17.23-8.89,.4-.56-.02-1.33-.67-1.33-.03,0-.06,0-.09,0-.69,.07-1.38,.11-2.09,.11-11.71,0-21.21-9.5-21.21-21.22,0-3.28,.76-6.38,2.09-9.15,.28-.58-.14-1.22-.71-1.22h0Z"/></g><g><g><path class="d" d="M30.57,6.73c-.51-1.09-1.43-1.94-2.57-2.34,1.16-.48,2.07-1.4,2.53-2.56,.47,1.1,1.35,1.97,2.46,2.43-1.09,.48-1.96,1.37-2.42,2.47Z"/><path class="d" d="M30.54,2.77c.39,.6,.91,1.11,1.52,1.5-.61,.4-1.12,.93-1.51,1.55-.41-.6-.95-1.09-1.57-1.46,.63-.41,1.16-.95,1.56-1.59m-.02-2.77l-.15,.82c-.3,1.67-1.57,2.99-3.22,3.37l-1.08,.25,1.03,.16c1.65,.26,2.98,1.49,3.36,3.12l.15,.63,.12-.61c.32-1.66,1.59-2.98,3.25-3.35l.72-.16-.77-.16c-1.64-.33-2.91-1.61-3.23-3.25l-.16-.83h0Z"/></g><g><path class="d" d="M41,10.25c-.3-.83-.83-1.46-1.46-1.73,.64-.33,1.16-1.02,1.44-1.9,.28,.83,.78,1.48,1.39,1.79-.61,.34-1.1,1-1.37,1.84Z"/><path class="d" d="M40.99,7.36c.23,.44,.53,.8,.87,1.06-.35,.28-.64,.67-.87,1.12-.24-.43-.55-.79-.9-1.04,.36-.29,.67-.68,.91-1.15m-.02-2.32l-.08,.65c-.16,1.32-.84,2.38-1.72,2.68l-.58,.2,.55,.13c.88,.2,1.59,1.19,1.79,2.48l.08,.5,.06-.48c.17-1.32,.85-2.36,1.74-2.66l.38-.13-.41-.12c-.87-.26-1.56-1.28-1.73-2.58l-.09-.66h0Z"/></g><g><path class="d" d="M33.63,15.96c-.24-.54-.67-.96-1.2-1.15,.54-.23,.96-.69,1.18-1.26,.22,.54,.63,.97,1.14,1.19-.51,.24-.91,.67-1.12,1.22Z"/><path class="d" d="M33.62,14.02c.18,.3,.43,.55,.71,.73-.28,.2-.52,.46-.71,.76-.19-.29-.44-.54-.73-.71,.29-.2,.54-.47,.73-.78m-.01-1.4l-.07,.41c-.14,.83-.72,1.5-1.47,1.69l-.49,.12,.47,.08c.76,.13,1.36,.75,1.54,1.56l.07,.31,.05-.31c.15-.83,.73-1.49,1.49-1.67l.33-.08-.35-.08c-.75-.16-1.33-.81-1.48-1.62l-.07-.41h0Z"/></g></g></g></g></g></svg>