<?xml version="1.0" encoding="UTF-8"?><svg xmlns="http://www.w3.org/2000/svg" viewBox="0 0 50.09 50.09"><defs><style>.m{fill:#1d1d1b;}</style></defs><g id="a"/><g id="b"><g id="c"><g><path class="m" d="M25.04,13.33c6.46,0,11.71,5.25,11.71,11.71s-5.25,11.71-11.71,11.71-11.71-5.25-11.71-11.71,5.25-11.71,11.71-11.71m0-4c-8.68,0-15.71,7.04-15.71,15.71s7.04,15.71,15.71,15.71,15.71-7.04,15.71-15.71-7.04-15.71-15.71-15.71h0Z"/><g><g id="d"><rect class="m" x="23.1" y="0" width="3.99" height="6.68" rx=".3" ry=".3" transform="translate(0 -.06) rotate(.14)"/></g><g id="e"><rect class="m" x="37.05" y="5.11" width="3.99" height="6.68" rx=".3" ry=".3" transform="translate(14.64 -23.18) rotate(40.14)"/></g><g id="f"><rect class="m" x="44.44" y="17.98" width="3.99" height="6.68" rx=".3" ry=".3" transform="translate(59.49 -28.08) rotate(80.14)"/></g><g id="g"><rect class="m" x="41.83" y="32.6" width="3.99" height="6.68" rx=".3" ry=".3" transform="translate(96.91 16.1) rotate(120.14)"/></g><g id="h"><rect class="m" x="30.43" y="42.12" width="3.99" height="6.68" rx=".3" ry=".3" transform="translate(78.36 77.21) rotate(160.14)"/></g><g id="i"><rect class="m" x="15.58" y="42.09" width="3.99" height="6.68" rx=".3" ry=".3" transform="translate(18.43 94.13) rotate(-159.86)"/></g><g id="j"><rect class="m" x="4.22" y="32.51" width="3.99" height="6.68" rx=".3" ry=".3" transform="translate(-21.78 59.1) rotate(-119.86)"/></g><g id="k"><rect class="m" x="1.68" y="17.88" width="3.99" height="6.68" rx=".3" ry=".3" transform="translate(-17.87 21.1) rotate(-79.86)"/></g><g id="l"><rect class="m" x="9.14" y="5.04" width="3.99" height="6.68" rx=".3" ry=".3" transform="translate(-2.78 9.08) rotate(-39.86)"/></g></g></g></g></g></svg>