<svg xmlns="http://www.w3.org/2000/svg" xmlns:xlink="http://www.w3.org/1999/xlink" width="109.167" height="63.876" viewBox="0 0 109.167 63.876"><defs><clipPath id="a"><rect width="42" height="53" transform="translate(44.571 -4)" fill="none"/></clipPath><clipPath id="b"><rect width="48.643" height="53" transform="translate(-4.429 -4)" fill="none"/></clipPath></defs><g transform="translate(10.453 9.438)"><g transform="matrix(0.966, 0.259, -0.259, 0.966, 14.058, -17.11)" clip-path="url(#a)"><path d="M82.462,2.5H52.179a1.381,1.381,0,0,0-.937.359L46.776,6.984l-4.3-3.974a1.386,1.386,0,0,0-.937-.359H3.824A1.277,1.277,0,0,0,2.5,3.874V17.24l3.24,2.992a6.666,6.666,0,0,1,.252,9.723L2.5,33.5V46.642a.916.916,0,0,0,.95.878h38.7a.992.992,0,0,0,.672-.257l4.412-4.075,4.4,4.064a1.62,1.62,0,0,0,1.1.42H81.968A3.694,3.694,0,0,0,85.8,44.133V6.039A3.7,3.7,0,0,0,81.968,2.5H52.085" transform="translate(-2.5 -2.5)" fill="none" stroke="#000" stroke-miterlimit="10" stroke-width="5"/><text transform="translate(63.268 28.97)" font-size="17" font-family="BebasNeuePro-SmEBd, Bebas Neue Pro"><tspan x="-14.594" y="0">TTER</tspan></text></g><g transform="matrix(0.966, -0.259, 0.259, 0.966, -5.14, 5.961)" clip-path="url(#b)"><path d="M82.462,2.5H52.179a1.381,1.381,0,0,0-.937.359L46.776,6.984l-4.3-3.974a1.386,1.386,0,0,0-.937-.359H3.824A1.277,1.277,0,0,0,2.5,3.874V17.24l3.24,2.992a6.666,6.666,0,0,1,.252,9.723L2.5,33.5V46.642a.916.916,0,0,0,.95.878h38.7a.992.992,0,0,0,.672-.257l4.412-4.075,4.4,4.064a1.62,1.62,0,0,0,1.1.42H81.968A3.694,3.694,0,0,0,85.8,44.133V6.039A3.7,3.7,0,0,0,81.968,2.5H52.085" transform="translate(-2.5 -2.5)" fill="none" stroke="#000" stroke-miterlimit="10" stroke-width="5"/><text transform="translate(24.149 28.205)" font-size="17" font-family="BebasNeuePro-SmEBd, Bebas Neue Pro"><tspan x="-15.946" y="0">BILLE</tspan></text></g><line x2="11" y2="38" transform="translate(37.071 -1.5)" fill="none" stroke="#000" stroke-width="3" stroke-dasharray="5"/><line x1="11" y2="39" transform="translate(47.071 -2.5)" fill="none" stroke="#000" stroke-width="3" stroke-dasharray="5"/></g></svg>