<?xml version="1.0" encoding="utf-8"?>
<!-- Generator: Adobe Illustrator 26.3.1, SVG Export Plug-In . SVG Version: 6.00 Build 0)  -->
<svg version="1.1" id="Lag_1" xmlns="http://www.w3.org/2000/svg" xmlns:xlink="http://www.w3.org/1999/xlink" x="0px" y="0px"
	 viewBox="0 0 88.3 50.2" style="enable-background:new 0 0 88.3 50.2;" xml:space="preserve">
<style type="text/css">
	.st0{fill:none;stroke:#000000;stroke-width:5;stroke-miterlimit:10;}
	.st1{enable-background:new    ;}
</style>
<g transform="translate(2.5 2.5)">
	<path class="st0" d="M80,0H49.7c-0.3,0-0.7,0.1-0.9,0.4l-4.5,4.1l-4.3-4c-0.3-0.2-0.6-0.4-0.9-0.4H1.3C0.6,0.1,0,0.7,0,1.4v13.4
		l3.2,3c2.8,2.4,3,6.7,0.5,9.4c-0.1,0.1-0.2,0.2-0.3,0.3L0,31v13.1C0,44.6,0.4,45,1,45h38.7c0.2,0,0.5-0.1,0.7-0.3l4.4-4.1l4.4,4.1
		c0.3,0.3,0.7,0.4,1.1,0.4h29.2c2,0,3.7-1.5,3.8-3.5V3.5c-0.1-2-1.8-3.6-3.8-3.5H49.6"/>
	<g class="st1">
		<path d="M13.9,18.1H17c2.1,0,3.1,0.9,3.1,2.8v0.4c0,1.2-0.5,2-1.4,2.4v0.1c1.1,0.3,1.6,1.2,1.6,2.6V27c0,2-1,3-3.1,3h-3.3V18.1z
			 M16.8,23c1,0,1.4-0.4,1.4-1.4v-0.4c0-1-0.4-1.3-1.2-1.3h-1.2V23H16.8z M17.2,28.3c0.8,0,1.2-0.4,1.2-1.3v-0.7
			c0-1.2-0.4-1.6-1.5-1.6h-1.1v3.6H17.2z"/>
		<path d="M21.7,18.1h1.9V30h-1.9V18.1z"/>
		<path d="M25.4,18.1h1.9v10.2h3.6V30h-5.5V18.1z"/>
		<path d="M32.1,18.1H34v10.2h3.6V30h-5.5V18.1z"/>
		<path d="M38.8,18.1h5.7v1.7h-3.8V23h3v1.7h-3v3.6h3.8V30h-5.7V18.1z"/>
		<path d="M47.5,19.8h-2.3v-1.7h6.5v1.7h-2.3V30h-1.9V19.8z"/>
		<path d="M54.8,19.8h-2.3v-1.7H59v1.7h-2.3V30h-1.9V19.8z"/>
		<path d="M60.2,18.1h5.7v1.7h-3.8V23h3v1.7h-3v3.6h3.8V30h-5.7V18.1z"/>
		<path d="M67.1,18.1h3.1c2.1,0,3.1,0.9,3.1,2.9v0.6c0,1.3-0.5,2.1-1.4,2.4V24c1,0.3,1.4,1.2,1.4,2.7v1.8c0,0.6,0,1.1,0.2,1.5h-2
			c-0.1-0.3-0.2-0.5-0.2-1.6v-1.9c0-1.2-0.4-1.6-1.5-1.6h-0.9v5h-1.9V18.1z M70,23.3c1,0,1.4-0.4,1.4-1.4v-0.7
			c0-0.9-0.4-1.3-1.2-1.3h-1.1v3.4H70z"/>
	</g>
</g>
</svg>
